<svg width="328" height="328" viewBox="0 0 328 328" fill="none" xmlns="http://www.w3.org/2000/svg">
<path fill-rule="evenodd" clip-rule="evenodd" d="M164 328C254.575 328 328 254.575 328 164C328 73.4253 254.575 0 164 0C73.4253 0 0 73.4253 0 164C0 254.575 73.4253 328 164 328ZM164 307C242.977 307 307 242.977 307 164C307 85.0233 242.977 21 164 21C85.0233 21 21 85.0233 21 164C21 242.977 85.0233 307 164 307Z" fill="#0A0935"/>
<circle cx="165" cy="11" r="7" fill="url(#paint0_linear_53_438)"/>
<circle cx="7" cy="7" r="7" transform="matrix(1 0 0 -1 158 324)" fill="url(#paint1_linear_53_438)"/>
<circle cx="239" cy="30" r="7" fill="url(#paint2_linear_53_438)"/>
<circle cx="7" cy="7" r="7" transform="matrix(-1 0 0 1 96 23)" fill="url(#paint3_linear_53_438)"/>
<circle cx="7" cy="7" r="7" transform="matrix(1 0 0 -1 232 305)" fill="url(#paint4_linear_53_438)"/>
<circle cx="89" cy="298" r="7" transform="rotate(180 89 298)" fill="url(#paint5_linear_53_438)"/>
<circle cx="298" cy="89" r="7" fill="url(#paint6_linear_53_438)"/>
<circle cx="7" cy="7" r="7" transform="matrix(-1 0 0 1 37 82)" fill="url(#paint7_linear_53_438)"/>
<circle cx="7" cy="7" r="7" transform="matrix(-1 0 0 1 18 157)" fill="url(#paint8_linear_53_438)"/>
<circle cx="7" cy="7" r="7" transform="matrix(1 0 0 -1 291 246)" fill="url(#paint9_linear_53_438)"/>
<circle cx="30" cy="239" r="7" transform="rotate(180 30 239)" fill="url(#paint10_linear_53_438)"/>
<defs>
<linearGradient id="paint0_linear_53_438" x1="165" y1="4" x2="165" y2="18" gradientUnits="userSpaceOnUse">
<stop stop-color="#FCEB68"/>
<stop offset="1" stop-color="#FDFFA3"/>
</linearGradient>
<linearGradient id="paint1_linear_53_438" x1="7" y1="0" x2="7" y2="14" gradientUnits="userSpaceOnUse">
<stop stop-color="#FCEB68"/>
<stop offset="1" stop-color="#FDFFA3"/>
</linearGradient>
<linearGradient id="paint2_linear_53_438" x1="239" y1="23" x2="239" y2="37" gradientUnits="userSpaceOnUse">
<stop stop-color="#FCEB68"/>
<stop offset="1" stop-color="#FDFFA3"/>
</linearGradient>
<linearGradient id="paint3_linear_53_438" x1="7" y1="0" x2="7" y2="14" gradientUnits="userSpaceOnUse">
<stop stop-color="#FCEB68"/>
<stop offset="1" stop-color="#FDFFA3"/>
</linearGradient>
<linearGradient id="paint4_linear_53_438" x1="7" y1="0" x2="7" y2="14" gradientUnits="userSpaceOnUse">
<stop stop-color="#FCEB68"/>
<stop offset="1" stop-color="#FDFFA3"/>
</linearGradient>
<linearGradient id="paint5_linear_53_438" x1="89" y1="291" x2="89" y2="305" gradientUnits="userSpaceOnUse">
<stop stop-color="#FCEB68"/>
<stop offset="1" stop-color="#FDFFA3"/>
</linearGradient>
<linearGradient id="paint6_linear_53_438" x1="298" y1="82" x2="298" y2="96" gradientUnits="userSpaceOnUse">
<stop stop-color="#FCEB68"/>
<stop offset="1" stop-color="#FDFFA3"/>
</linearGradient>
<linearGradient id="paint7_linear_53_438" x1="7" y1="0" x2="7" y2="14" gradientUnits="userSpaceOnUse">
<stop stop-color="#FCEB68"/>
<stop offset="1" stop-color="#FDFFA3"/>
</linearGradient>
<linearGradient id="paint8_linear_53_438" x1="7" y1="0" x2="7" y2="14" gradientUnits="userSpaceOnUse">
<stop stop-color="#FCEB68"/>
<stop offset="1" stop-color="#FDFFA3"/>
</linearGradient>
<linearGradient id="paint9_linear_53_438" x1="7" y1="0" x2="7" y2="14" gradientUnits="userSpaceOnUse">
<stop stop-color="#FCEB68"/>
<stop offset="1" stop-color="#FDFFA3"/>
</linearGradient>
<linearGradient id="paint10_linear_53_438" x1="30" y1="232" x2="30" y2="246" gradientUnits="userSpaceOnUse">
<stop stop-color="#FCEB68"/>
<stop offset="1" stop-color="#FDFFA3"/>
</linearGradient>
</defs>
</svg>
