<svg width="321" height="321" viewBox="0 0 321 321" fill="none" xmlns="http://www.w3.org/2000/svg">
<g filter="url(#filter0_i_53_453)">
<circle cx="160.5" cy="160.5" r="160.5" fill="#FA3855"/>
<path d="M321 160.5C321 198.716 307.364 235.677 282.545 264.736C257.726 293.796 223.353 313.046 185.608 319.024C147.863 325.002 109.223 317.316 76.639 297.349C44.0549 277.381 19.6647 246.442 7.85543 210.097C-3.95382 173.752 -2.40712 134.386 12.2173 99.0793C26.8418 63.7728 53.5842 34.843 87.6345 17.4935C121.685 0.143958 160.808 -4.48662 197.968 4.43463C235.128 13.3559 267.885 35.2434 290.347 66.1605L160.5 160.5L321 160.5Z" fill="#100D3A"/>
<path d="M321 160.5C321 194.394 310.27 227.418 290.347 254.84C270.425 282.261 242.333 302.671 210.097 313.145C177.862 323.618 143.138 323.618 110.903 313.145C78.6674 302.671 50.5753 282.261 30.6528 254.84C10.7302 227.418 -2.96313e-06 194.394 0 160.5C2.96313e-06 126.606 10.7302 93.5815 30.6528 66.1605C50.5753 38.7394 78.6674 18.3293 110.903 7.85542C143.138 -2.61848 177.862 -2.61847 210.097 7.85544L160.5 160.5L321 160.5Z" fill="#FA3855"/>
<path d="M321 160.5C321 190.1 312.815 219.123 297.349 244.361C281.883 269.599 259.739 290.069 233.365 303.507C206.992 316.945 177.416 322.828 147.907 320.505C118.399 318.183 90.1072 307.746 66.1605 290.347C42.2137 272.949 23.5447 249.267 12.2173 221.921C0.88999 194.574 -2.6544 164.628 1.97602 135.392C6.60644 106.157 19.2313 78.7715 38.4548 56.2636C57.6784 33.7557 82.7517 17.0023 110.903 7.85543L160.5 160.5H321Z" fill="#100D3A"/>
<path d="M321 160.5C321 185.829 315.005 210.798 303.507 233.365C292.008 255.933 275.331 275.459 254.84 290.347C234.348 305.235 210.624 315.062 185.608 319.024C160.591 322.986 134.992 320.972 110.903 313.145C86.8139 305.318 64.9194 291.901 47.0094 273.991C29.0994 256.081 15.6824 234.186 7.85543 210.097C0.0284686 186.008 -1.98624 160.409 1.97602 135.392C5.93829 110.376 15.765 86.6517 30.6528 66.1605L160.5 160.5H321Z" fill="#FA3855"/>
<path d="M321 160.5C321 181.577 316.849 202.448 308.783 221.921C300.717 241.393 288.894 259.087 273.991 273.991C259.087 288.894 241.393 300.717 221.921 308.783C202.448 316.849 181.577 321 160.5 321C139.423 321 118.552 316.849 99.0793 308.783C79.6065 300.717 61.9132 288.894 47.0094 273.991C32.1056 259.087 20.2832 241.393 12.2173 221.921C4.15145 202.448 -1.84262e-06 181.577 0 160.5L160.5 160.5H321Z" fill="#100D3A"/>
<path d="M321 160.5C321 194.394 310.27 227.418 290.347 254.84C270.425 282.261 242.333 302.671 210.097 313.145C177.862 323.618 143.138 323.618 110.903 313.145C78.6674 302.671 50.5753 282.261 30.6528 254.84L160.5 160.5L321 160.5Z" fill="#FA3855"/>
<path d="M321 160.5C321 185.829 315.005 210.798 303.507 233.365C292.008 255.933 275.331 275.459 254.84 290.347C234.348 305.235 210.624 315.062 185.608 319.024C160.591 322.986 134.992 320.972 110.903 313.145L160.5 160.5H321Z" fill="#100D3A"/>
<path d="M321 160.5C321 194.394 310.27 227.418 290.347 254.84C270.425 282.261 242.333 302.671 210.097 313.145L160.5 160.5L321 160.5Z" fill="#FA3855"/>
<path d="M321 160.5C321 194.394 310.27 227.418 290.347 254.84L160.5 160.5L321 160.5Z" fill="#100D3A"/>
<circle cx="159.952" cy="161.048" r="11.7423" fill="#FDFEFE" stroke="#F2FB6A" stroke-width="5"/>
</g>
<defs>
<filter id="filter0_i_53_453" x="-0.00012207" y="-0.000213623" width="321" height="325.001" filterUnits="userSpaceOnUse" color-interpolation-filters="sRGB">
<feFlood flood-opacity="0" result="BackgroundImageFix"/>
<feBlend mode="normal" in="SourceGraphic" in2="BackgroundImageFix" result="shape"/>
<feColorMatrix in="SourceAlpha" type="matrix" values="0 0 0 0 0 0 0 0 0 0 0 0 0 0 0 0 0 0 127 0" result="hardAlpha"/>
<feOffset dy="4"/>
<feGaussianBlur stdDeviation="36.9"/>
<feComposite in2="hardAlpha" operator="arithmetic" k2="-1" k3="1"/>
<feColorMatrix type="matrix" values="0 0 0 0 0 0 0 0 0 0 0 0 0 0 0 0 0 0 0.5 0"/>
<feBlend mode="normal" in2="shape" result="effect1_innerShadow_53_453"/>
</filter>
</defs>
</svg>
