<svg width="81" height="90" viewBox="0 12 81 90" fill="none" xmlns="http://www.w3.org/2000/svg">
<g filter="url(#filter0_d_18_5169)">
<path d="M22 12H58C58 14.2091 56.2091 16 54 16H26C23.7909 16 22 14.2091 22 12Z" />
</g>
<!-- <g filter="url(#filter1_f_18_5169)">
<circle cx="40.5" cy="49.5" r="8.5" fill="none"/>
</g> -->
<path fill-rule="evenodd" clip-rule="evenodd" d="M39.9991 45.175C38.8255 45.175 37.8741 44.2236 37.8741 43.05C37.8741 41.8764 38.8255 40.925 39.9991 40.925C41.1727 40.925 42.1241 41.8764 42.1241 43.05C42.1241 44.2236 41.1727 45.175 39.9991 45.175ZM35.3241 43.05C35.3241 40.4681 37.4172 38.375 39.9991 38.375C42.5811 38.375 44.6741 40.4681 44.6741 43.05C44.6741 45.6319 42.5811 47.725 39.9991 47.725C37.4172 47.725 35.3241 45.6319 35.3241 43.05ZM34.4741 55.375C34.4741 54.6679 34.8676 53.9673 35.8277 53.3829C36.8015 52.7901 38.2565 52.4 39.9991 52.4C41.7418 52.4 43.1968 52.7901 44.1706 53.3829C45.1307 53.9673 45.5241 54.6679 45.5241 55.375C45.5241 55.8728 45.3551 56.13 45.1527 56.2919C44.912 56.4845 44.4797 56.65 43.8241 56.65H36.1741C35.5186 56.65 35.0863 56.4845 34.8456 56.2919C34.6432 56.13 34.4741 55.8728 34.4741 55.375ZM39.9991 49.85C37.9168 49.85 35.9718 50.3099 34.5018 51.2046C33.0182 52.1077 31.9241 53.5321 31.9241 55.375C31.9241 56.5772 32.3926 57.595 33.2527 58.2831C34.0745 58.9405 35.1297 59.2 36.1741 59.2H43.8241C44.8686 59.2 45.9238 58.9405 46.7456 58.2831C47.6057 57.595 48.0741 56.5772 48.0741 55.375C48.0741 53.5321 46.9801 52.1077 45.4965 51.2046C44.0265 50.3099 42.0815 49.85 39.9991 49.85ZM46.8092 40.3504C46.9083 39.6532 47.5538 39.1684 48.2509 39.2675C50.3136 39.5606 51.8991 41.3316 51.8991 43.475C51.8991 45.8222 49.9964 47.725 47.6491 47.725C46.945 47.725 46.3741 47.1542 46.3741 46.45C46.3741 45.7459 46.945 45.175 47.6491 45.175C48.588 45.175 49.3491 44.4139 49.3491 43.475C49.3491 42.6192 48.7155 41.9091 47.8921 41.7921C47.195 41.693 46.7101 41.0475 46.8092 40.3504ZM49.7721 49C49.0679 49 48.4971 49.5708 48.4971 50.275C48.4971 50.9792 49.0679 51.55 49.7721 51.55C51.7416 51.55 52.7489 52.6934 52.7489 53.675C52.7489 54.0428 52.6237 54.3804 52.4336 54.6056C52.2636 54.8069 52.0206 54.95 51.6441 54.95C50.94 54.95 50.3691 55.5208 50.3691 56.225C50.3691 56.9292 50.94 57.5 51.6441 57.5C54.072 57.5 55.2989 55.4435 55.2989 53.675C55.2989 50.7653 52.5667 49 49.7721 49ZM31.4991 50.275C31.4991 49.5708 30.9283 49 30.2241 49C27.4295 49 24.6973 50.7653 24.6973 53.675C24.6973 55.4435 25.9242 57.5 28.3521 57.5C29.0562 57.5 29.6271 56.9292 29.6271 56.225C29.6271 55.5208 29.0562 54.95 28.3521 54.95C27.9756 54.95 27.7326 54.8069 27.5626 54.6056C27.3725 54.3804 27.2473 54.0428 27.2473 53.675C27.2473 52.6934 28.2546 51.55 30.2241 51.55C30.9283 51.55 31.4991 50.9792 31.4991 50.275ZM31.7411 39.2684C32.4381 39.1682 33.0843 39.6521 33.1844 40.3491C33.2845 41.0461 32.8007 41.6923 32.1037 41.7924C31.2815 41.9106 30.6491 42.62 30.6491 43.475C30.6491 44.4139 31.4103 45.175 32.3491 45.175C33.0533 45.175 33.6241 45.7459 33.6241 46.45C33.6241 47.1542 33.0533 47.725 32.3491 47.725C30.0019 47.725 28.0991 45.8222 28.0991 43.475C28.0991 41.3337 29.6815 39.5642 31.7411 39.2684Z" fill="currentColor"/>
<!-- <defs>
<filter id="filter0_d_18_5169" x="10" y="0" width="60" height="28" filterUnits="userSpaceOnUse" color-interpolation-filters="sRGB">
<feFlood flood-opacity="0" result="BackgroundImageFix"/>
<feColorMatrix in="SourceAlpha" type="matrix" values="0 0 0 0 0 0 0 0 0 0 0 0 0 0 0 0 0 0 127 0" result="hardAlpha"/>
<feOffset/>
<feGaussianBlur stdDeviation="6"/>
<feComposite in2="hardAlpha" operator="out"/>
<feColorMatrix type="matrix" values="0 0 0 0 0.376471 0 0 0 0 0.513726 0 0 0 0 1 0 0 0 0.8 0"/>
<feBlend mode="normal" in2="BackgroundImageFix" result="effect1_dropShadow_18_5169"/>
<feBlend mode="normal" in="SourceGraphic" in2="effect1_dropShadow_18_5169" result="shape"/>
</filter>
<filter id="filter1_f_18_5169" x="0" y="9" width="81" height="81" filterUnits="userSpaceOnUse" color-interpolation-filters="sRGB">
<feFlood flood-opacity="0" result="BackgroundImageFix"/>
<feBlend mode="normal" in="SourceGraphic" in2="BackgroundImageFix" result="shape"/>
<feGaussianBlur stdDeviation="16" result="effect1_foregroundBlur_18_5169"/>
</filter>
</defs> -->
</svg>
