<svg width="97" height="108" viewBox="0 14.4 81 90" fill="none" xmlns="http://www.w3.org/2000/svg">
<g filter="url(#filter0_d_18_5418)">
<path d="M22 12H58C58 14.2091 56.2091 16 54 16H26C23.7909 16 22 14.2091 22 12Z" fill=""/>
</g>
<g clip-path="url(#clip0_18_5418)">
<path d="M34.834 43.1667C34.834 44.4043 35.3256 45.5913 36.2008 46.4665C37.076 47.3417 38.263 47.8333 39.5007 47.8333C40.7383 47.8333 41.9253 47.3417 42.8005 46.4665C43.6757 45.5913 44.1673 44.4043 44.1673 43.1667C44.1673 41.929 43.6757 40.742 42.8005 39.8668C41.9253 38.9917 40.7383 38.5 39.5007 38.5C38.263 38.5 37.076 38.9917 36.2008 39.8668C35.3256 40.742 34.834 41.929 34.834 43.1667Z" fill="none" stroke="currentColor" stroke-width="2.7" stroke-linecap="round" stroke-linejoin="round"/>
<path d="M32.5 59.5V57.1667C32.5 55.929 32.9917 54.742 33.8668 53.8668C34.742 52.9917 35.929 52.5 37.1667 52.5H41.8333C43.071 52.5 44.258 52.9917 45.1332 53.8668C46.0083 54.742 46.5 55.929 46.5 57.1667V59.5" fill="none" stroke="currentColor" stroke-width="2.7" stroke-linecap="round" stroke-linejoin="round"/>
</g>
</svg>
