<svg width="73.2" height="79.2" viewBox="0 12 61 66" fill="none" xmlns="http://www.w3.org/2000/svg">
<g filter="url(#filter0_d_18_5231)">
<path d="M12.25 12H48.25C48.25 14.2091 46.4591 16 44.25 16H16.25C14.0409 16 12.25 14.2091 12.25 12Z" />
</g>
<path d="M37.9047 43.161H34.5388V42.7861C34.5388 39.6386 31.9783 37.0781 28.8309 37.0781H21.9583C18.8108 37.0781 16.25 39.6386 16.25 42.7861V53.6225C16.25 54.1792 16.5825 54.6769 17.0969 54.8899C17.2678 54.9605 17.4464 54.9949 17.6234 54.9949C17.9797 54.9949 18.3289 54.8555 18.592 54.5927L21.7533 51.4311H25.3242V51.806C25.3242 54.9535 27.8847 57.514 31.0322 57.514H38.1094L41.271 60.6759C41.5341 60.939 41.8833 61.0781 42.2396 61.0781C42.4166 61.0781 42.5953 61.0438 42.7662 60.9731C43.2805 60.7601 43.613 60.2627 43.613 59.7057V48.8693C43.6127 45.7215 41.0522 43.161 37.9047 43.161ZM25.3242 48.869V49.5067H21.5249C21.159 49.5067 20.8146 49.649 20.5547 49.9083L18.1741 52.2889V42.7858C18.1741 40.6995 19.8717 39.0019 21.958 39.0019H28.8305C30.9168 39.0019 32.6144 40.6995 32.6144 42.7858V43.1607H31.0322C27.8847 43.161 25.3242 45.7215 25.3242 48.869ZM32.6147 45.0854V45.7231C32.6147 47.8098 30.9172 49.507 28.8309 49.507H27.2486V48.8693C27.2486 46.783 28.9462 45.0854 31.0325 45.0854H32.6147ZM41.6886 58.3721L39.308 55.9915C39.0488 55.7325 38.7044 55.5899 38.3378 55.5899H31.0322C28.9459 55.5899 27.2483 53.8923 27.2483 51.806V51.4311H28.8305C31.978 51.4311 34.5385 48.8703 34.5385 45.7228V45.0851H37.9044C39.9911 45.0851 41.6883 46.7827 41.6883 48.869V58.3721H41.6886Z" fill="currentColor" stroke="currentColor" stroke-width="0.3"/>
<path fill-rule="evenodd" clip-rule="evenodd" d="M22.2496 39.1496C20.1233 39.1496 18.3996 40.8733 18.3996 42.9996V51.968C18.9926 51.2056 19.6632 50.3597 20.4923 49.6341L20.8175 49.3496H25.0996V48.9996C25.0996 45.6031 27.8531 42.8496 31.2496 42.8496H32.5967C32.5179 40.7928 30.8257 39.1496 28.7496 39.1496H22.2496ZM34.8978 42.8496C34.8182 39.5224 32.096 36.8496 28.7496 36.8496H22.2496C18.8531 36.8496 16.0996 39.6031 16.0996 42.9996V52.7958C16.0996 53.6821 16.6133 54.4269 17.3661 54.7314C18.1425 55.0454 19.0576 54.8399 19.6453 54.1071C19.8389 53.8656 20.0202 53.633 20.1951 53.4084C20.7005 52.7598 21.153 52.1789 21.6984 51.6496H25.1014C25.181 54.9769 27.9032 57.6496 31.2496 57.6496H38.3008C38.8462 58.1789 39.2987 58.7598 39.8041 59.4084C39.979 59.633 40.1603 59.8656 40.354 60.1071C40.9416 60.8399 41.8567 61.0454 42.6331 60.7314C43.386 60.4269 43.8996 59.6821 43.8996 58.7958V48.9996C43.8996 45.6031 41.1462 42.8496 37.7496 42.8496H34.8978ZM32.5996 45.1496H31.2496C29.1233 45.1496 27.3996 46.8733 27.3996 48.9996V49.3496H28.7496C30.8759 49.3496 32.5996 47.6259 32.5996 45.4996V45.1496ZM27.4025 51.6496H28.7496C32.1462 51.6496 34.8996 48.8962 34.8996 45.4996V45.1496H37.7496C39.8759 45.1496 41.5996 46.8733 41.5996 48.9996V57.968C41.0066 57.2056 40.336 56.3597 39.5069 55.6341L39.1817 55.3496H31.2496C29.1735 55.3496 27.4813 53.7064 27.4025 51.6496Z" fill="currentColor"/>
<defs>
<filter id="filter0_d_18_5231" x="0.25" y="0" width="60" height="28" filterUnits="userSpaceOnUse" color-interpolation-filters="sRGB">
<feFlood flood-opacity="0" result="BackgroundImageFix"/>
<feColorMatrix in="SourceAlpha" type="matrix" values="0 0 0 0 0 0 0 0 0 0 0 0 0 0 0 0 0 0 127 0" result="hardAlpha"/>
<feOffset/>
<feGaussianBlur stdDeviation="6"/>
<feComposite in2="hardAlpha" operator="out"/>
<feColorMatrix type="matrix" values="0 0 0 0 0.376471 0 0 0 0 0.513726 0 0 0 0 1 0 0 0 0.8 0"/>
<feBlend mode="normal" in2="BackgroundImageFix" result="effect1_dropShadow_18_5231"/>
<feBlend mode="normal" in="SourceGraphic" in2="effect1_dropShadow_18_5231" result="shape"/>
</filter>
</defs>
</svg>
