<svg width="61" height="66" viewBox="0 12 61 66" fill="none" xmlns="http://www.w3.org/2000/svg">
<g filter="url(#filter0_d_18_5383)">
<path d="M12.75 12H48.75V12C48.75 14.2091 46.9591 16 44.75 16H16.75C14.5409 16 12.75 14.2091 12.75 12V12Z"/>
</g>
<path fill-rule="evenodd" clip-rule="evenodd" d="M17.9686 44.2608C17.6313 43.3551 18.0922 42.3474 18.9979 42.0102L26.495 39.2186C27.4008 38.8813 28.4084 39.3422 28.7457 40.2479L29.6269 42.6146C27.5839 44.0796 26.6451 46.7769 27.4821 49.2515L29.3261 54.7041L24.4066 56.5359C23.5009 56.8731 22.4932 56.4123 22.156 55.5065L17.9686 44.2608ZM30.1273 57.0734L25.279 58.8787C23.0793 59.6978 20.6322 58.5786 19.8131 56.3789L15.6257 45.1332C14.8067 42.9335 15.9259 40.4864 18.1255 39.6673L25.6227 36.8757C27.8223 36.0567 30.2695 37.1759 31.0886 39.3755L31.9301 41.6355C33.0602 41.4335 34.1937 41.5993 35.1877 42.0628C36.4854 42.6679 37.5474 43.7816 38.0493 45.2602L38.2824 45.9447L38.9501 45.689L38.9514 45.6885C41.8631 44.5567 45.0974 46.0653 46.1013 49.0237C47.0998 51.9662 45.5812 55.223 42.6852 56.3495C40.9764 57.0142 39.2676 57.6791 37.5588 58.3439L37.5127 58.3619L37.467 58.3797L37.4217 58.3973C35.8051 59.0263 34.1886 59.6553 32.572 60.2841C32.4171 60.3445 32.2516 60.3728 32.0854 60.3675C31.9191 60.3621 31.7555 60.3231 31.6046 60.2527C31.4537 60.1824 31.3186 60.0821 31.2076 59.9582C31.0965 59.8341 31.0118 59.6889 30.9585 59.5312L30.1273 57.0734ZM30.5442 45.078C29.7304 45.9676 29.4061 47.2699 29.8118 48.4692L31.6347 53.8445L31.9038 53.7443C32.8095 53.407 33.2704 52.3994 32.9331 51.4936L30.5442 45.078ZM32.4379 56.2131L32.882 57.5225C34.2925 56.974 35.6867 56.4324 37.0808 55.8909L37.0867 55.8887C38.6463 55.2829 40.2058 54.6771 41.7878 54.0617C43.4556 53.4129 44.3437 51.5083 43.7687 49.8137C43.1992 48.1354 41.4894 47.3381 39.8377 47.9804L37.9798 48.7063C37.8247 48.7669 37.6589 48.7954 37.4925 48.79C37.326 48.7846 37.1625 48.7456 37.0117 48.6752C36.8608 48.6049 36.7258 48.5047 36.6147 48.3807C36.5036 48.2567 36.4189 48.1114 36.3656 47.9537L35.7238 46.054C35.4361 45.2063 34.8581 44.5883 34.1615 44.2635C33.7509 44.072 33.2907 43.9784 32.8108 44.0008L35.276 50.6212C36.095 52.8209 34.9758 55.2681 32.7761 56.0871L32.4379 56.2131Z" fill="currentColor"/>
<defs>
<filter id="filter0_d_18_5383" x="0.75" y="0" width="60" height="28" filterUnits="userSpaceOnUse" color-interpolation-filters="sRGB">
<feFlood flood-opacity="0" result="BackgroundImageFix"/>
<feColorMatrix in="SourceAlpha" type="matrix" values="0 0 0 0 0 0 0 0 0 0 0 0 0 0 0 0 0 0 127 0" result="hardAlpha"/>
<feOffset/>
<feGaussianBlur stdDeviation="6"/>
<feComposite in2="hardAlpha" operator="out"/>
<feColorMatrix type="matrix" values="0 0 0 0 0.376471 0 0 0 0 0.513726 0 0 0 0 1 0 0 0 0.8 0"/>
<feBlend mode="normal" in2="BackgroundImageFix" result="effect1_dropShadow_18_5383"/>
<feBlend mode="normal" in="SourceGraphic" in2="effect1_dropShadow_18_5383" result="shape"/>
</filter>
</defs>
</svg>
