<svg width="28" height="26" viewBox="0 0 28 26" fill="none" xmlns="http://www.w3.org/2000/svg">
<g filter="url(#filter0_d_165_4945)">
<mask id="path-1-outside-1_165_4945" maskUnits="userSpaceOnUse" x="5" y="5" width="18" height="16" fill="black">
<rect fill="white" x="5" y="5" width="18" height="16"/>
<path d="M21 12C21.5523 12 22 12.4477 22 13C22 13.5523 21.5523 14 21 14L9.41421 14L13.7071 18.2929C14.0976 18.6834 14.0976 19.3166 13.7071 19.7071C13.3166 20.0976 12.6834 20.0976 12.2929 19.7071L6.29289 13.7071C5.90237 13.3166 5.90237 12.6834 6.29289 12.2929L12.2929 6.29289C12.6834 5.90237 13.3166 5.90237 13.7071 6.29289C14.0976 6.68342 14.0976 7.31658 13.7071 7.70711L9.41421 12L21 12Z"/>
</mask>
<path d="M21 12C21.5523 12 22 12.4477 22 13C22 13.5523 21.5523 14 21 14L9.41421 14L13.7071 18.2929C14.0976 18.6834 14.0976 19.3166 13.7071 19.7071C13.3166 20.0976 12.6834 20.0976 12.2929 19.7071L6.29289 13.7071C5.90237 13.3166 5.90237 12.6834 6.29289 12.2929L12.2929 6.29289C12.6834 5.90237 13.3166 5.90237 13.7071 6.29289C14.0976 6.68342 14.0976 7.31658 13.7071 7.70711L9.41421 12L21 12Z" />
<path d="M21 12L21 12.5L21 12.5L21 12ZM21 14L21 14.5H21L21 14ZM13.7071 7.70711L13.3536 7.35355L13.3536 7.35355L13.7071 7.70711ZM13.7071 6.29289L13.3536 6.64645L13.3536 6.64645L13.7071 6.29289ZM6.29289 12.2929L6.64645 12.6464L6.64645 12.6464L6.29289 12.2929ZM6.29289 13.7071L6.64645 13.3536L6.64645 13.3536L6.29289 13.7071ZM12.2929 6.29289L12.6464 6.64645L12.6464 6.64645L12.2929 6.29289ZM12.2929 19.7071L12.6464 19.3536L12.6464 19.3536L12.2929 19.7071ZM13.7071 19.7071L13.3536 19.3536L13.3536 19.3536L13.7071 19.7071ZM13.7071 18.2929L13.3536 18.6464L13.3536 18.6464L13.7071 18.2929ZM9.41421 12L9.06066 11.6464L8.20711 12.5L9.41421 12.5L9.41421 12ZM9.41421 14L9.41421 13.5L8.20711 13.5L9.06066 14.3536L9.41421 14ZM22.5 13C22.5 12.1716 21.8284 11.5 21 11.5L21 12.5C21.2761 12.5 21.5 12.7239 21.5 13L22.5 13ZM21 14.5C21.8284 14.5 22.5 13.8284 22.5 13L21.5 13C21.5 13.2761 21.2761 13.5 21 13.5L21 14.5ZM14.0607 8.06066C14.6464 7.47487 14.6464 6.52513 14.0607 5.93934L13.3536 6.64645C13.5488 6.84171 13.5488 7.15829 13.3536 7.35355L14.0607 8.06066ZM5.93934 11.9393C5.35355 12.5251 5.35355 13.4749 5.93934 14.0607L6.64645 13.3536C6.45118 13.1583 6.45118 12.8417 6.64645 12.6464L5.93934 11.9393ZM11.9393 5.93934L5.93934 11.9393L6.64645 12.6464L12.6464 6.64645L11.9393 5.93934ZM14.0607 5.93934C13.4749 5.35355 12.5251 5.35355 11.9393 5.93934L12.6464 6.64645C12.8417 6.45118 13.1583 6.45118 13.3536 6.64645L14.0607 5.93934ZM12.6464 19.3536L6.64645 13.3536L5.93934 14.0607L11.9393 20.0607L12.6464 19.3536ZM13.3536 19.3536C13.1583 19.5488 12.8417 19.5488 12.6464 19.3536L11.9393 20.0607C12.5251 20.6464 13.4749 20.6464 14.0607 20.0607L13.3536 19.3536ZM13.3536 18.6464C13.5488 18.8417 13.5488 19.1583 13.3536 19.3536L14.0607 20.0607C14.6464 19.4749 14.6464 18.5251 14.0607 17.9393L13.3536 18.6464ZM9.76777 12.3536L14.0607 8.06066L13.3536 7.35355L9.06066 11.6464L9.76777 12.3536ZM21 11.5L9.41421 11.5L9.41421 12.5L21 12.5L21 11.5ZM9.06066 14.3536L13.3536 18.6464L14.0607 17.9393L9.76777 13.6464L9.06066 14.3536ZM9.41421 14.5L21 14.5L21 13.5L9.41421 13.5L9.41421 14.5Z" fill="black" fill-opacity="0.12" mask="url(#path-1-outside-1_165_4945)"/>
</g>
<defs>
<filter id="filter0_d_165_4945" x="0.5" y="0.5" width="27" height="25" filterUnits="userSpaceOnUse" color-interpolation-filters="sRGB">
<feFlood flood-opacity="0" result="BackgroundImageFix"/>
<feColorMatrix in="SourceAlpha" type="matrix" values="0 0 0 0 0 0 0 0 0 0 0 0 0 0 0 0 0 0 127 0" result="hardAlpha"/>
<feOffset/>
<feGaussianBlur stdDeviation="2.5"/>
<feColorMatrix type="matrix" values="0 0 0 0 0 0 0 0 0 0 0 0 0 0 0 0 0 0 0.16 0"/>
<feBlend mode="normal" in2="BackgroundImageFix" result="effect1_dropShadow_165_4945"/>
<feBlend mode="normal" in="SourceGraphic" in2="effect1_dropShadow_165_4945" result="shape"/>
</filter>
</defs>
</svg>
