<svg width="28" height="29" viewBox="0 0 28 29" fill="none" xmlns="http://www.w3.org/2000/svg">
<g filter="url(#filter0_dd_2609_6024)">
<path d="M8.79388 6.11717C10.2012 6.31067 11.6035 5.72983 12.4618 4.59785C13.2346 3.57871 14.7667 3.57871 15.5395 4.59785C16.3978 5.72983 17.8001 6.31067 19.2074 6.11717C20.4745 5.94296 21.5579 7.02632 21.3836 8.29339C21.1901 9.70075 21.771 11.103 22.903 11.9613C23.9221 12.7341 23.9221 14.2662 22.903 15.039C21.771 15.8973 21.1901 17.2996 21.3836 18.7069C21.5579 19.974 20.4745 21.0574 19.2074 20.8832C17.8001 20.6897 16.3978 21.2705 15.5395 22.4025C14.7667 23.4216 13.2346 23.4216 12.4618 22.4025C11.6035 21.2705 10.2012 20.6897 8.79388 20.8832C7.5268 21.0574 6.44344 19.974 6.61766 18.7069C6.81116 17.2996 6.23032 15.8973 5.09834 15.039C4.0792 14.2662 4.0792 12.7341 5.09834 11.9613C6.23032 11.103 6.81116 9.70075 6.61766 8.29339C6.44344 7.02632 7.5268 5.94296 8.79388 6.11717Z" stroke="currentColor" stroke-width="2" shape-rendering="crispEdges"/>
</g>
<path fill-rule="evenodd" clip-rule="evenodd" d="M19.0207 9.77299C19.4222 10.1522 19.4403 10.7851 19.061 11.1866L13.3944 17.1866C13.0216 17.5813 12.402 17.6065 11.9984 17.2433L8.99706 14.5421C8.58655 14.1726 8.55327 13.5403 8.92273 13.1298C9.29219 12.7193 9.92448 12.686 10.335 13.0555L12.6107 15.1036L17.607 9.81338C17.9862 9.41186 18.6191 9.39378 19.0207 9.77299Z" fill="currentColor"/>
</svg>
