<svg width="28" height="29" viewBox="0 0 28 29" fill="none" xmlns="http://www.w3.org/2000/svg">
<g filter="url(#filter0_dd_612_4961)">
<path d="M11.665 3.99317C12.8379 2.44629 15.1634 2.44629 16.3363 3.99317C16.9763 4.8372 18.0219 5.27028 19.0712 5.126C20.9944 4.86158 22.6387 6.50592 22.3743 8.42911C22.23 9.47847 22.6631 10.524 23.5072 11.164C25.054 12.3369 25.054 14.6624 23.5072 15.8353C22.6631 16.4753 22.23 17.5209 22.3743 18.5702C22.6387 20.4934 20.9944 22.1378 19.0712 21.8733C18.0219 21.7291 16.9763 22.1622 16.3363 23.0062C15.1634 24.5531 12.8379 24.5531 11.665 23.0062C11.025 22.1622 9.97945 21.7291 8.93009 21.8733C7.0069 22.1378 5.36255 20.4934 5.62698 18.5702C5.77126 17.5209 5.33817 16.4753 4.49414 15.8353C2.94727 14.6624 2.94727 12.3369 4.49414 11.164C5.33817 10.524 5.77126 9.47847 5.62698 8.42911C5.36255 6.50592 7.0069 4.86158 8.93009 5.126C9.97945 5.27028 11.025 4.8372 11.665 3.99317Z" fill="#529EF4"/>
</g>
<path fill-rule="evenodd" clip-rule="evenodd" d="M19.0207 9.77299C19.4222 10.1522 19.4403 10.7851 19.061 11.1866L13.3944 17.1866C13.0216 17.5813 12.402 17.6065 11.9984 17.2433L8.99706 14.5421C8.58655 14.1726 8.55327 13.5403 8.92273 13.1298C9.29219 12.7193 9.92448 12.686 10.335 13.0555L12.6107 15.1036L17.607 9.81338C17.9862 9.41186 18.6191 9.39378 19.0207 9.77299Z" fill="white"/>
<defs>
<filter id="filter0_dd_612_4961" x="0.333984" y="0.833008" width="27.334" height="27.333" filterUnits="userSpaceOnUse" color-interpolation-filters="sRGB">
<feFlood flood-opacity="0" result="BackgroundImageFix"/>
<feColorMatrix in="SourceAlpha" type="matrix" values="0 0 0 0 0 0 0 0 0 0 0 0 0 0 0 0 0 0 127 0" result="hardAlpha"/>
<feOffset dy="1"/>
<feGaussianBlur stdDeviation="1.5"/>
<feComposite in2="hardAlpha" operator="out"/>
<feColorMatrix type="matrix" values="0 0 0 0 0 0 0 0 0 0 0 0 0 0 0 0 0 0 0.08 0"/>
<feBlend mode="normal" in2="BackgroundImageFix" result="effect1_dropShadow_612_4961"/>
<feColorMatrix in="SourceAlpha" type="matrix" values="0 0 0 0 0 0 0 0 0 0 0 0 0 0 0 0 0 0 127 0" result="hardAlpha"/>
<feOffset/>
<feGaussianBlur stdDeviation="0.5"/>
<feComposite in2="hardAlpha" operator="out"/>
<feColorMatrix type="matrix" values="0 0 0 0 0 0 0 0 0 0 0 0 0 0 0 0 0 0 0.08 0"/>
<feBlend mode="normal" in2="effect1_dropShadow_612_4961" result="effect2_dropShadow_612_4961"/>
<feBlend mode="normal" in="SourceGraphic" in2="effect2_dropShadow_612_4961" result="shape"/>
</filter>
</defs>
</svg>
