<svg width="32" height="32" viewBox="0 0 32 32" fill="none" xmlns="http://www.w3.org/2000/svg">
<g filter="url(#filter0_dd_452_4868)">
<path d="M13.665 5.49317C14.8379 3.94629 17.1634 3.94629 18.3363 5.49317C18.9763 6.3372 20.0219 6.77028 21.0712 6.626C22.9944 6.36158 24.6387 8.00592 24.3743 9.92911C24.23 10.9785 24.6631 12.024 25.5072 12.664C27.054 13.8369 27.054 16.1624 25.5072 17.3353C24.6631 17.9753 24.23 19.0209 24.3743 20.0702C24.6387 21.9934 22.9944 23.6378 21.0712 23.3733C20.0219 23.2291 18.9763 23.6622 18.3363 24.5062C17.1634 26.0531 14.8379 26.0531 13.665 24.5062C13.025 23.6622 11.9794 23.2291 10.9301 23.3733C9.0069 23.6378 7.36255 21.9934 7.62698 20.0702C7.77126 19.0209 7.33817 17.9753 6.49414 17.3353C4.94727 16.1624 4.94727 13.8369 6.49414 12.664C7.33817 12.024 7.77126 10.9785 7.62698 9.92911C7.36255 8.00592 9.0069 6.36158 10.9301 6.626C11.9794 6.77028 13.025 6.3372 13.665 5.49317Z" fill="#529EF4"/>
<path d="M19.1331 4.88897C17.5601 2.81436 14.4412 2.81435 12.8682 4.88897C12.4465 5.44505 11.7577 5.73038 11.0663 5.63532C8.487 5.28069 6.28166 7.48602 6.6363 10.0653C6.73136 10.7567 6.44602 11.4455 5.88994 11.8672C3.81533 13.4403 3.81533 16.5591 5.88994 18.1322C6.44602 18.5538 6.73136 19.2427 6.6363 19.934C6.28166 22.5133 8.487 24.7187 11.0663 24.364C11.7577 24.269 12.4465 24.5543 12.8682 25.1104C14.4412 27.185 17.5601 27.185 19.1331 25.1104C19.5548 24.5543 20.2436 24.269 20.935 24.364C23.5143 24.7187 25.7196 22.5133 25.365 19.934C25.2699 19.2427 25.5553 18.5538 26.1114 18.1322C28.186 16.5591 28.186 13.4403 26.1114 11.8672C25.5553 11.4455 25.2699 10.7567 25.365 10.0653C25.7196 7.48602 23.5143 5.28068 20.935 5.63532C20.2436 5.73038 19.5548 5.44505 19.1331 4.88897Z" stroke="#0C2536" stroke-width="2"/>
</g>
<path fill-rule="evenodd" clip-rule="evenodd" d="M21.0207 11.273C21.4222 11.6522 21.4403 12.2851 21.061 12.6866L15.3944 18.6866C15.0216 19.0813 14.402 19.1065 13.9984 18.7433L10.9971 16.0421C10.5865 15.6726 10.5533 15.0403 10.9227 14.6298C11.2922 14.2193 11.9245 14.186 12.335 14.5555L14.6107 16.6036L19.607 11.3134C19.9862 10.9119 20.6191 10.8938 21.0207 11.273Z" fill="white"/>
<defs>
<filter id="filter0_dd_452_4868" x="0.333984" y="0.333008" width="31.334" height="31.333" filterUnits="userSpaceOnUse" color-interpolation-filters="sRGB">
<feFlood flood-opacity="0" result="BackgroundImageFix"/>
<feColorMatrix in="SourceAlpha" type="matrix" values="0 0 0 0 0 0 0 0 0 0 0 0 0 0 0 0 0 0 127 0" result="hardAlpha"/>
<feOffset dy="1"/>
<feGaussianBlur stdDeviation="1.5"/>
<feComposite in2="hardAlpha" operator="out"/>
<feColorMatrix type="matrix" values="0 0 0 0 0 0 0 0 0 0 0 0 0 0 0 0 0 0 0.08 0"/>
<feBlend mode="normal" in2="BackgroundImageFix" result="effect1_dropShadow_452_4868"/>
<feColorMatrix in="SourceAlpha" type="matrix" values="0 0 0 0 0 0 0 0 0 0 0 0 0 0 0 0 0 0 127 0" result="hardAlpha"/>
<feOffset/>
<feGaussianBlur stdDeviation="0.5"/>
<feComposite in2="hardAlpha" operator="out"/>
<feColorMatrix type="matrix" values="0 0 0 0 0 0 0 0 0 0 0 0 0 0 0 0 0 0 0.08 0"/>
<feBlend mode="normal" in2="effect1_dropShadow_452_4868" result="effect2_dropShadow_452_4868"/>
<feBlend mode="normal" in="SourceGraphic" in2="effect2_dropShadow_452_4868" result="shape"/>
</filter>
</defs>
</svg>
