<svg width="50" height="50" viewBox="27 27 50 50" fill="none" xmlns="http://www.w3.org/2000/svg">
<g filter="url(#filter0_d_4_923)">
<circle cx="52" cy="52" r="23" stroke="#FF2525" stroke-width="2" shape-rendering="crispEdges"/>
</g>
<g filter="url(#filter1_d_4_923)">
<path d="M45.2636 45.2636C45.6151 44.9121 46.185 44.9121 46.5364 45.2636L52 50.7272L57.4636 45.2636C57.8151 44.9122 58.385 44.9122 58.7364 45.2636C59.0879 45.6151 59.0879 46.185 58.7364 46.5364L53.2728 52L58.7364 57.4636C59.0879 57.8151 59.0879 58.385 58.7364 58.7364C58.3849 59.0879 57.8151 59.0879 57.4636 58.7364L52 53.2728L46.5364 58.7364C46.1849 59.0879 45.6151 59.0879 45.2636 58.7364C44.9121 58.3849 44.9121 57.8151 45.2636 57.4636L50.7272 52L45.2636 46.5364C44.9122 46.1849 44.9122 45.6151 45.2636 45.2636Z" fill="#FF2525"/>
</g>
<defs>
<filter id="filter0_d_4_923" x="0" y="0" width="104" height="104" filterUnits="userSpaceOnUse" color-interpolation-filters="sRGB">
<feFlood flood-opacity="0" result="BackgroundImageFix"/>
<feColorMatrix in="SourceAlpha" type="matrix" values="0 0 0 0 0 0 0 0 0 0 0 0 0 0 0 0 0 0 127 0" result="hardAlpha"/>
<feOffset/>
<feGaussianBlur stdDeviation="14"/>
<feComposite in2="hardAlpha" operator="out"/>
<feColorMatrix type="matrix" values="0 0 0 0 1 0 0 0 0 0.145098 0 0 0 0 0.145098 0 0 0 0.8 0"/>
<feBlend mode="normal" in2="BackgroundImageFix" result="effect1_dropShadow_4_923"/>
<feBlend mode="normal" in="SourceGraphic" in2="effect1_dropShadow_4_923" result="shape"/>
</filter>
<filter id="filter1_d_4_923" x="25" y="25" width="54" height="54" filterUnits="userSpaceOnUse" color-interpolation-filters="sRGB">
<feFlood flood-opacity="0" result="BackgroundImageFix"/>
<feColorMatrix in="SourceAlpha" type="matrix" values="0 0 0 0 0 0 0 0 0 0 0 0 0 0 0 0 0 0 127 0" result="hardAlpha"/>
<feOffset/>
<feGaussianBlur stdDeviation="10"/>
<feComposite in2="hardAlpha" operator="out"/>
<feColorMatrix type="matrix" values="0 0 0 0 1 0 0 0 0 0.145098 0 0 0 0 0.145098 0 0 0 0.68 0"/>
<feBlend mode="normal" in2="BackgroundImageFix" result="effect1_dropShadow_4_923"/>
<feBlend mode="normal" in="SourceGraphic" in2="effect1_dropShadow_4_923" result="shape"/>
</filter>
</defs>
</svg>
