<svg width="28" height="28" viewBox="0 0 28 28" fill="none" xmlns="http://www.w3.org/2000/svg">
<g clip-path="url(#clip0_218_6855)">
<path d="M8.16637 20.9999C6.71069 20.9999 5.31464 20.4468 4.28532 19.4622C3.256 18.4776 2.67773 17.1423 2.67773 15.7499C2.67773 14.3575 3.256 13.0222 4.28532 12.0376C5.31464 11.053 6.71069 10.4999 8.16637 10.4999C8.51017 8.96828 9.51593 7.6223 10.9624 6.75807C11.6786 6.33015 12.4815 6.03337 13.3251 5.8847C14.1688 5.73603 15.0367 5.73836 15.8793 5.89157C16.722 6.04478 17.5228 6.34586 18.2362 6.77763C18.9496 7.2094 19.5615 7.76339 20.0369 8.40799C20.5124 9.05258 20.8421 9.77515 21.0073 10.5344C21.1725 11.2937 21.1699 12.0749 20.9997 12.8332H22.1664C23.2493 12.8332 24.288 13.2634 25.0537 14.0292C25.8195 14.795 26.2497 15.8336 26.2497 16.9166C26.2497 17.9995 25.8195 19.0381 25.0537 19.8039C24.288 20.5697 23.2493 20.9999 22.1664 20.9999H20.9997" stroke="#99A2AD" stroke-width="1.25" stroke-linecap="round" stroke-linejoin="round"/>
<path d="M10.5 17.5L14 14L17.5 17.5" stroke="#99A2AD" stroke-width="1.25" stroke-linecap="round" stroke-linejoin="round"/>
<path d="M14 14V24.5" stroke="#99A2AD" stroke-width="1.25" stroke-linecap="round" stroke-linejoin="round"/>
</g>
<defs>
<clipPath id="clip0_218_6855">
<rect width="28" height="28" fill="white"/>
</clipPath>
</defs>
</svg>
