<svg width="50" height="44" viewBox="0 0 50 44" fill="none" xmlns="http://www.w3.org/2000/svg">
<path d="M2 14L3.41421 12.5858L0 9.17157L0 14H2ZM2 36H0C0 37.1046 0.895431 38 2 38L2 36ZM48 36V38C49.1046 38 50 37.1046 50 36H48ZM48 14H50V9.17157L46.5858 12.5858L48 14ZM35 27L33.1793 27.8276C33.4507 28.4248 33.9977 28.8509 34.6432 28.9679C35.2886 29.0849 35.9504 28.878 36.4142 28.4142L35 27ZM25 5L26.8207 4.17239L25 0.166782L23.1793 4.17239L25 5ZM15 27L13.5858 28.4142C14.0496 28.878 14.7114 29.0849 15.3568 28.9679C16.0023 28.8509 16.5493 28.4248 16.8207 27.8276L15 27ZM0 14V36H4V14H0ZM2 38H48V34H2V38ZM50 36V14H46V36H50ZM46.5858 12.5858L33.5858 25.5858L36.4142 28.4142L49.4142 15.4142L46.5858 12.5858ZM36.8207 26.1724L26.8207 4.17239L23.1793 5.82761L33.1793 27.8276L36.8207 26.1724ZM23.1793 4.17239L13.1793 26.1724L16.8207 27.8276L26.8207 5.82761L23.1793 4.17239ZM16.4142 25.5858L3.41421 12.5858L0.585786 15.4142L13.5858 28.4142L16.4142 25.5858Z" fill="currentColor"/>
<path d="M2 42H48" stroke="currentColor" stroke-width="4" stroke-linecap="round"/>
</svg>
