<svg width="24" height="18" viewBox="0 0 24 18" fill="none" xmlns="http://www.w3.org/2000/svg">
<path d="M9.66602 7.16683C9.66602 7.78567 9.91185 8.37916 10.3494 8.81674C10.787 9.25433 11.3805 9.50016 11.9993 9.50016C12.6182 9.50016 13.2117 9.25433 13.6493 8.81674C14.0868 8.37916 14.3327 7.78567 14.3327 7.16683C14.3327 6.54799 14.0868 5.9545 13.6493 5.51691C13.2117 5.07933 12.6182 4.8335 11.9993 4.8335C11.3805 4.8335 10.787 5.07933 10.3494 5.51691C9.91185 5.9545 9.66602 6.54799 9.66602 7.16683Z" stroke="currentColor" stroke-width="2.7" stroke-linecap="round" stroke-linejoin="round"/>
<path d="M7.33398 16.5V15.3333C7.33398 14.7145 7.57982 14.121 8.0174 13.6834C8.45499 13.2458 9.04848 13 9.66732 13H14.334C14.9528 13 15.5463 13.2458 15.9839 13.6834C16.4215 14.121 16.6673 14.7145 16.6673 15.3333V16.5" stroke="currentColor" stroke-width="2.7" stroke-linecap="round" stroke-linejoin="round"/>
<path d="M17.834 10H20.1673C20.7862 10 21.3796 10.2458 21.8172 10.6834C22.2548 11.121 22.5007 11.7145 22.5007 12.3333V13.5" stroke="currentColor" stroke-width="2.7" stroke-linecap="round" stroke-linejoin="round"/>
<path d="M1.5 13.5V12.3333C1.5 11.7145 1.74583 11.121 2.18342 10.6834C2.621 10.2458 3.21449 10 3.83333 10H6.16667" stroke="currentColor" stroke-width="2.7" stroke-linecap="round" stroke-linejoin="round"/>
<path d="M5.87495 6.21026C5.34325 5.89364 4.95909 5.37876 4.80701 4.7789C4.65492 4.17905 4.74736 3.54334 5.06398 3.01163C5.38061 2.47993 5.89548 2.09578 6.49534 1.94369C7.0952 1.79161 7.7309 1.88404 8.26261 2.20067" stroke="currentColor" stroke-width="2.7" stroke-linecap="round" stroke-linejoin="round"/>
<path d="M15.8611 2.15297C16.3994 1.84761 17.0369 1.76857 17.6334 1.93325C18.2299 2.09792 18.7366 2.49282 19.042 3.03107C19.3473 3.56932 19.4264 4.20683 19.2617 4.80336C19.097 5.39988 18.7021 5.90656 18.1639 6.21193" stroke="currentColor" stroke-width="2.7" stroke-linecap="round" stroke-linejoin="round"/>
</svg>
