<svg width="29" height="26" viewBox="0 0 29 26" fill="none" xmlns="http://www.w3.org/2000/svg">
<path d="M22.6547 7.16101H19.2888V6.78609C19.2888 3.63863 16.7283 1.07812 13.5809 1.07812H6.70829C3.56083 1.07812 1 3.63863 1 6.78609V17.6225C1 18.1792 1.33251 18.6769 1.84686 18.8899C2.01778 18.9605 2.1964 18.9949 2.37342 18.9949C2.72971 18.9949 3.07893 18.8555 3.34204 18.5927L6.50332 15.4311H10.0742V15.806C10.0742 18.9535 12.6347 21.514 15.7822 21.514H22.8594L26.021 24.6759C26.2841 24.939 26.6333 25.0781 26.9896 25.0781C27.1666 25.0781 27.3453 25.0438 27.5162 24.9731C28.0305 24.7601 28.363 24.2627 28.363 23.7057V12.8693C28.3627 9.72152 25.8022 7.16101 22.6547 7.16101ZM10.0742 12.869V13.5067H6.2749C5.90897 13.5067 5.56458 13.649 5.30467 13.9083L2.92407 16.2889V6.78577C2.92407 4.69946 4.62165 3.00188 6.70797 3.00188H13.5805C15.6668 3.00188 17.3644 4.69946 17.3644 6.78577V7.16069H15.7822C12.6347 7.16101 10.0742 9.72152 10.0742 12.869ZM17.3647 9.08541V9.72312C17.3647 11.8098 15.6672 13.507 13.5809 13.507H11.9986V12.8693C11.9986 10.783 13.6962 9.08541 15.7825 9.08541H17.3647ZM26.4386 22.3721L24.058 19.9915C23.7988 19.7325 23.4544 19.5899 23.0878 19.5899H15.7822C13.6959 19.5899 11.9983 17.8923 11.9983 15.806V15.4311H13.5805C16.728 15.4311 19.2885 12.8703 19.2885 9.7228V9.08509H22.6544C24.7411 9.08509 26.4383 10.7827 26.4383 12.869V22.3721H26.4386Z" fill="currentColor" stroke="#58606B" stroke-width="0.3"/>
<path fill-rule="evenodd" clip-rule="evenodd" d="M6.99961 3.14961C4.87331 3.14961 3.14961 4.87331 3.14961 6.99961V15.968C3.7426 15.2056 4.41317 14.3597 5.24233 13.6341L5.56751 13.3496H9.84961V12.9996C9.84961 9.60306 12.6031 6.84961 15.9996 6.84961H17.3467C17.2679 4.79284 15.5757 3.14961 13.4996 3.14961H6.99961ZM19.6478 6.84961C19.5682 3.52236 16.846 0.849609 13.4996 0.849609H6.99961C3.60306 0.849609 0.849609 3.60306 0.849609 6.99961V16.7958C0.849609 17.6821 1.36326 18.4269 2.1161 18.7314C2.89249 19.0454 3.8076 18.8399 4.39525 18.1071C4.5889 17.8656 4.77018 17.633 4.94512 17.4084C5.45048 16.7598 5.90299 16.1789 6.44838 15.6496H9.8514C9.93105 18.9769 12.6532 21.6496 15.9996 21.6496H23.0508C23.5962 22.1789 24.0487 22.7598 24.5541 23.4084C24.729 23.633 24.9103 23.8656 25.104 24.1071C25.6916 24.8399 26.6067 25.0454 27.3831 24.7314C28.136 24.4269 28.6496 23.6821 28.6496 22.7958V12.9996C28.6496 9.60306 25.8962 6.84961 22.4996 6.84961H19.6478ZM17.3496 9.14961H15.9996C13.8733 9.14961 12.1496 10.8733 12.1496 12.9996V13.3496H13.4996C15.6259 13.3496 17.3496 11.6259 17.3496 9.49961V9.14961ZM12.1525 15.6496H13.4996C16.8962 15.6496 19.6496 12.8962 19.6496 9.49961V9.14961H22.4996C24.6259 9.14961 26.3496 10.8733 26.3496 12.9996V21.968C25.7566 21.2056 25.086 20.3597 24.2569 19.6341L23.9317 19.3496H15.9996C13.9235 19.3496 12.2313 17.7064 12.1525 15.6496Z" fill="currentColor"/>
</svg>
