<svg width="22" height="36" viewBox="0 0 22 36" fill="none" xmlns="http://www.w3.org/2000/svg">
<path d="M18 1L14 9" stroke="currentColor"/>
<path d="M1 9V8C0.595538 8 0.230901 8.24364 0.0761205 8.61732C-0.0786605 8.99099 0.00689522 9.42111 0.292893 9.70711L1 9ZM21 9L21.7071 9.70711C21.9931 9.42111 22.0787 8.99099 21.9239 8.61732C21.7691 8.24364 21.4045 8 21 8V9ZM4.5 34.5L3.93079 33.6778C3.57114 33.9268 3.41506 34.3806 3.54549 34.7982C3.67591 35.2157 4.06257 35.5 4.5 35.5V34.5ZM17.5 34.5V35.5C17.9374 35.5 18.3241 35.2157 18.4545 34.7982C18.5849 34.3806 18.4289 33.9268 18.0692 33.6778L17.5 34.5ZM0.292893 9.70711L10.2929 19.7071L11.7071 18.2929L1.70711 8.29289L0.292893 9.70711ZM11.7071 19.7071L21.7071 9.70711L20.2929 8.29289L10.2929 18.2929L11.7071 19.7071ZM21 8H1V10H21V8ZM10 19V30H12V19H10ZM10.4308 29.1778L3.93079 33.6778L5.06921 35.3222L11.5692 30.8222L10.4308 29.1778ZM4.5 35.5H17.5V33.5H4.5V35.5ZM18.0692 33.6778L11.5692 29.1778L10.4308 30.8222L16.9308 35.3222L18.0692 33.6778Z" fill="currentColor"/>
</svg>
