<svg width="11" height="34" viewBox="0 0 11 34" fill="none" xmlns="http://www.w3.org/2000/svg">
<path d="M7 31.5V13.5C7 12.6716 7.67157 12 8.5 12C9.32843 12 10 11.3284 10 10.5V1.10891C10 1.04876 9.95124 1 9.89109 1H7H4H1.10891C1.04876 1 1 1.04876 1 1.10891V10.5C1 11.3284 1.67157 12 2.5 12C3.32843 12 4 12.6716 4 13.5V31.5C4 32.3284 4.67157 33 5.5 33C6.32843 33 7 32.3284 7 31.5Z" fill="none"/>
<path d="M4 1H1.10891C1.04876 1 1 1.04876 1 1.10891V10.5C1 11.3284 1.67157 12 2.5 12V12C3.32843 12 4 12.6716 4 13.5V31.5C4 32.3284 4.67157 33 5.5 33V33C6.32843 33 7 32.3284 7 31.5V13.5C7 12.6716 7.67157 12 8.5 12V12C9.32843 12 10 11.3284 10 10.5V1.10891C10 1.04876 9.95124 1 9.89109 1H7M4 1V7.5M4 1H7M7 1V7.5" stroke="currentColor" stroke-width="2" stroke-linecap="round"/>
</svg>
