<svg width="24" height="24" viewBox="0 0 24 24" fill="none" xmlns="http://www.w3.org/2000/svg">
<g clip-path="url(#clip0_611_6141)">
<path d="M10 5C10 5.53043 10.2107 6.03914 10.5858 6.41421C10.9609 6.78929 11.4696 7 12 7C12.5304 7 13.0391 6.78929 13.4142 6.41421C13.7893 6.03914 14 5.53043 14 5C14 4.46957 13.7893 3.96086 13.4142 3.58579C13.0391 3.21071 12.5304 3 12 3C11.4696 3 10.9609 3.21071 10.5858 3.58579C10.2107 3.96086 10 4.46957 10 5Z" stroke="white" stroke-width="1.5" stroke-linecap="round" stroke-linejoin="round"/>
<path d="M20.0001 12.5V17.25C20.0066 17.3611 19.9878 17.4722 19.9451 17.575C19.8783 17.7358 19.7543 17.8662 19.5971 17.941L14.1351 20.521C13.4675 20.8362 12.7383 20.9997 12.0001 20.9997C11.2618 20.9997 10.5327 20.8362 9.86507 20.521L4.40307 17.941C4.27417 17.8799 4.16683 17.7812 4.09524 17.6578C4.02364 17.5344 3.99115 17.3922 4.00207 17.25V12.5" stroke="white" stroke-width="1.5" stroke-linecap="round" stroke-linejoin="round"/>
<path d="M4.43097 12.2162L10.065 9.88419C11.3041 9.37194 12.6958 9.37194 13.935 9.88419L19.569 12.2162C19.6938 12.2672 19.801 12.3535 19.8774 12.4646C19.9538 12.5757 19.9961 12.7067 19.9991 12.8415C20.002 12.9763 19.9656 13.109 19.8941 13.2234C19.8227 13.3377 19.7194 13.4287 19.597 13.4852L14.135 16.0282C13.4662 16.3391 12.7375 16.5003 12 16.5003C11.2624 16.5003 10.5338 16.3391 9.86497 16.0282L4.40297 13.4852C4.27986 13.4292 4.17589 13.3383 4.10394 13.2238C4.032 13.1093 3.99523 12.9762 3.99821 12.841C4.0012 12.7057 4.04379 12.5744 4.12071 12.4631C4.19764 12.3519 4.30552 12.2667 4.43097 12.2162Z" stroke="white" stroke-width="1.5" stroke-linecap="round" stroke-linejoin="round"/>
<path d="M12 7V13" stroke="white" stroke-width="1.5" stroke-linecap="round" stroke-linejoin="round"/>
</g>
<defs>
<clipPath id="clip0_611_6141">
<rect width="24" height="24" fill="white"/>
</clipPath>
</defs>
</svg>
