<svg width="47" height="16" viewBox="0 0 47 16" fill="none" xmlns="http://www.w3.org/2000/svg">
<ellipse cx="12" cy="7.5" rx="9" ry="7.5" fill="black"/>
<ellipse cx="35" cy="7.5" rx="9" ry="7.5" fill="black"/>
<path d="M45.2658 0.627947C43.7804 0.371296 34.0406 -0.541982 29.0076 0.456845C21.7031 1.31613 24.4717 1.31594 18.0092 0.456664C12.8906 -0.542277 3.21863 0.371296 1.73318 0.627947C0.247729 0.884599 -0.1313 1.2268 0.0369826 2.36614C0.173025 3.28961 0.401072 3.4775 1.24249 4.10434C2.08312 4.73117 2.65795 8.77843 3.5552 11.6576C4.45245 14.5359 4.50828 15.5625 11.6564 15.5625C15.4089 15.5625 17.4842 15.03 18.773 13.9011C20.4016 12.4747 20.7248 10.2983 21.0331 9.30692C21.5843 7.53115 21.8603 5.95766 22.2527 5.04619C22.8905 3.56385 24.1101 3.56385 24.7479 5.04619C25.1403 5.95846 25.4155 7.53115 25.9675 9.30692C26.2758 10.2991 26.599 12.4747 28.2276 13.9011C29.5164 15.03 31.5916 15.5625 35.3442 15.5625C42.4923 15.5625 42.5481 14.5367 43.4454 11.6576C44.3426 8.77923 44.9167 4.73197 45.7581 4.10434C46.5987 3.4775 46.8276 3.28881 46.9636 2.36614C47.1303 1.2268 46.7513 0.884599 45.2658 0.627947ZM17 13C15.7976 14.2009 12.8647 14.0592 10 14C8.27967 13.9645 8 14 7 13.5C5.99345 12.8116 5.42857 11.94 5 10.5C3.5 4 5 3 5 3C6 2 9.39948 2.0024 12 2C15.3201 1.9968 18.1728 2.18148 19 3C20.5554 4.53911 19.4385 10.563 17 13ZM42 10.5C41.6603 12.0278 41.0066 12.8116 40 13.5C39 14 38.5995 13.9672 37 14C34.1353 14.0592 31.2024 14.2009 30 13C27.5615 10.563 26.4438 4.53911 28 3C28.8713 2.1381 31.6799 1.9968 35 2C37.6005 2.0024 41 2 42 3C42 3 43.4454 4 42 10.5Z" fill="currentColor"/>
<path d="M14.6525 11.2267C14.5 11.2267 14.3466 11.1676 14.2303 11.0484L8.7414 5.46766C8.50785 5.2302 8.50785 4.84561 8.7414 4.60815C8.97495 4.37069 9.35319 4.37069 9.58675 4.60815L15.0756 10.1889C15.3092 10.4264 15.3092 10.811 15.0756 11.0484C14.9584 11.1668 14.8059 11.2267 14.6525 11.2267Z" fill="#FF1D1D"/>
<path d="M9.19901 11.2097C9.04566 11.2097 8.89311 11.1506 8.77673 11.0315C8.54317 10.794 8.54317 10.4094 8.77673 10.172L14.2656 4.59118C14.4991 4.35372 14.8774 4.35372 15.1109 4.59118C15.3445 4.82864 15.3445 5.21323 15.1109 5.45069L9.62207 11.0315C9.5049 11.1498 9.35156 11.2097 9.19901 11.2097Z" fill="#FF1D1D"/>
<path d="M37.5407 8.43228C36.7984 9.46208 35.7132 10.3112 34.6044 10.8988C34.7719 10.8988 34.9394 10.8988 35.1069 10.8988C33.9635 10.2928 32.8383 9.40771 32.0967 8.32594C31.7334 7.79665 31.3709 7.14502 31.5541 6.48061C31.7035 5.93772 32.1604 5.50997 32.714 5.43242C33.465 5.32688 34.0949 5.79541 34.4251 6.44783C34.5919 6.77804 35.1187 6.77804 35.2854 6.44783C35.5174 5.98889 35.8689 5.6211 36.3683 5.48039C36.811 5.35566 37.3017 5.42522 37.665 5.72345C38.0031 6.00089 38.2131 6.43024 38.206 6.87238C38.1974 7.45365 37.8616 7.97654 37.5407 8.43228C37.3843 8.65455 37.5022 8.99595 37.7193 9.12548C37.9693 9.27419 38.2438 9.16705 38.401 8.94398C38.8532 8.30115 39.2558 7.528 39.1984 6.71167C39.1473 5.9825 38.7864 5.32048 38.2131 4.88153C37.6249 4.43139 36.8495 4.31066 36.1418 4.49296C35.3885 4.68725 34.7759 5.24212 34.4251 5.93612C34.7122 5.93612 34.9984 5.93612 35.2854 5.93612C34.7177 4.81277 33.4327 4.12357 32.206 4.51375C31.0579 4.87913 30.3635 6.06804 30.5468 7.26415C30.7213 8.40269 31.5801 9.40291 32.3845 10.1617C32.8233 10.575 33.2983 10.9556 33.7976 11.2906C34.0335 11.4497 34.2765 11.6032 34.5289 11.7336C34.7342 11.8391 34.8883 11.8767 35.1061 11.7727C35.2587 11.7 35.4057 11.6096 35.5504 11.5217C36.6396 10.8613 37.6477 9.98498 38.3995 8.94238C38.5583 8.72171 38.4356 8.37711 38.221 8.24918C37.9701 8.10047 37.7004 8.21161 37.5407 8.43228Z" fill="#FFFF12"/>
</svg>
