<svg width="47" height="54" viewBox="0 0 47 54" fill="none" xmlns="http://www.w3.org/2000/svg">
<g clip-path="url(#clip0_616_4109)">
<path d="M45.2658 29.6279C43.7804 29.3713 34.0406 28.458 29.0076 29.4568C21.7031 30.3161 24.4717 30.3159 18.0092 29.4567C12.8906 28.4577 3.21863 29.3713 1.73318 29.6279C0.247729 29.8846 -0.1313 30.2268 0.0369826 31.3661C0.173025 32.2896 0.401072 32.4775 1.24249 33.1043C2.08312 33.7312 2.65795 37.7784 3.5552 40.6576C4.45245 43.5359 4.50828 44.5625 11.6564 44.5625C15.4089 44.5625 17.4842 44.03 18.773 42.9011C20.4016 41.4747 20.7248 39.2983 21.0331 38.3069C21.5843 36.5312 21.8603 34.9577 22.2527 34.0462C22.8905 32.5638 24.1101 32.5638 24.7479 34.0462C25.1403 34.9585 25.4155 36.5312 25.9675 38.3069C26.2758 39.2991 26.599 41.4747 28.2276 42.9011C29.5164 44.03 31.5916 44.5625 35.3442 44.5625C42.4923 44.5625 42.5481 43.5367 43.4454 40.6576C44.3426 37.7792 44.9167 33.732 45.7581 33.1043C46.5987 32.4775 46.8276 32.2888 46.9636 31.3661C47.1303 30.2268 46.7513 29.8846 45.2658 29.6279ZM17 42C15.7976 43.2009 12.8647 43.0592 10 43C8.27967 42.9645 8 43 7 42.5C5.99345 41.8116 5.42857 40.94 5 39.5C3.5 33 5 32 5 32C6 31 9.39948 31.0024 12 31C15.3201 30.9968 18.1728 31.1815 19 32C20.5554 33.5391 19.4385 39.563 17 42ZM42 39.5C41.6603 41.0278 41.0066 41.8116 40 42.5C39 43 38.5995 42.9672 37 43C34.1353 43.0592 31.2024 43.2009 30 42C27.5615 39.563 26.4438 33.5391 28 32C28.8713 31.1381 31.6799 30.9968 35 31C37.6005 31.0024 41 31 42 32C42 32 43.4454 33 42 39.5Z" fill="#58606B"/>
<path d="M14.6525 40.2267C14.5 40.2267 14.3466 40.1676 14.2303 40.0484L8.7414 34.4677C8.50785 34.2302 8.50785 33.8456 8.7414 33.6082C8.97495 33.3707 9.35319 33.3707 9.58675 33.6082L15.0756 39.1889C15.3092 39.4264 15.3092 39.811 15.0756 40.0484C14.9584 40.1668 14.8059 40.2267 14.6525 40.2267Z" fill="#FF1D1D"/>
<path d="M9.19901 40.2097C9.04566 40.2097 8.89311 40.1506 8.77673 40.0315C8.54317 39.794 8.54317 39.4094 8.77673 39.172L14.2656 33.5912C14.4991 33.3537 14.8774 33.3537 15.1109 33.5912C15.3445 33.8286 15.3445 34.2132 15.1109 34.4507L9.62207 40.0315C9.5049 40.1498 9.35156 40.2097 9.19901 40.2097Z" fill="#FF1D1D"/>
<path d="M37.5407 37.4323C36.7984 38.4621 35.7132 39.3112 34.6044 39.8988C34.7719 39.8988 34.9394 39.8988 35.1069 39.8988C33.9635 39.2928 32.8383 38.4077 32.0967 37.3259C31.7334 36.7966 31.3709 36.145 31.5541 35.4806C31.7035 34.9377 32.1604 34.51 32.714 34.4324C33.465 34.3269 34.0949 34.7954 34.4251 35.4478C34.5919 35.778 35.1187 35.778 35.2854 35.4478C35.5174 34.9889 35.8689 34.6211 36.3683 34.4804C36.811 34.3557 37.3017 34.4252 37.665 34.7234C38.0031 35.0009 38.2131 35.4302 38.206 35.8724C38.1974 36.4536 37.8616 36.9765 37.5407 37.4323C37.3843 37.6546 37.5022 37.996 37.7193 38.1255C37.9693 38.2742 38.2438 38.1671 38.401 37.944C38.8532 37.3012 39.2558 36.528 39.1984 35.7117C39.1473 34.9825 38.7864 34.3205 38.2131 33.8815C37.6249 33.4314 36.8495 33.3107 36.1418 33.493C35.3885 33.6872 34.7759 34.2421 34.4251 34.9361C34.7122 34.9361 34.9984 34.9361 35.2854 34.9361C34.7177 33.8128 33.4327 33.1236 32.206 33.5137C31.0579 33.8791 30.3635 35.068 30.5468 36.2642C30.7213 37.4027 31.5801 38.4029 32.3845 39.1617C32.8233 39.575 33.2983 39.9556 33.7976 40.2906C34.0335 40.4497 34.2765 40.6032 34.5289 40.7336C34.7342 40.8391 34.8883 40.8767 35.1061 40.7727C35.2587 40.7 35.4057 40.6096 35.5504 40.5217C36.6396 39.8613 37.6477 38.985 38.3995 37.9424C38.5583 37.7217 38.4356 37.3771 38.221 37.2492C37.9701 37.1005 37.7004 37.2116 37.5407 37.4323Z" fill="#FFFF12"/>
<g filter="url(#filter0_d_616_4109)">
<path d="M3.52539 0H43.4754V0C43.4754 2.20914 41.6845 4 39.4754 4H7.52539C5.31626 4 3.52539 2.20914 3.52539 0V0Z" fill="#6083FF"/>
</g>
</g>
<defs>
<filter id="filter0_d_616_4109" x="-8.47461" y="-12" width="63.9492" height="28" filterUnits="userSpaceOnUse" color-interpolation-filters="sRGB">
<feFlood flood-opacity="0" result="BackgroundImageFix"/>
<feColorMatrix in="SourceAlpha" type="matrix" values="0 0 0 0 0 0 0 0 0 0 0 0 0 0 0 0 0 0 127 0" result="hardAlpha"/>
<feOffset/>
<feGaussianBlur stdDeviation="6"/>
<feComposite in2="hardAlpha" operator="out"/>
<feColorMatrix type="matrix" values="0 0 0 0 0.376471 0 0 0 0 0.513726 0 0 0 0 1 0 0 0 0.8 0"/>
<feBlend mode="normal" in2="BackgroundImageFix" result="effect1_dropShadow_616_4109"/>
<feBlend mode="normal" in="SourceGraphic" in2="effect1_dropShadow_616_4109" result="shape"/>
</filter>
<clipPath id="clip0_616_4109">
<rect width="47" height="54" fill="white"/>
</clipPath>
</defs>
</svg>
