<svg width="16" height="17" viewBox="0 0 16 17" fill="none" xmlns="http://www.w3.org/2000/svg">
<path d="M10.4531 3.16677C11.8927 2.64609 12.6124 2.38575 13.0821 2.54788C13.4903 2.68883 13.8112 3.00965 13.9521 3.41794C14.1143 3.88759 13.8539 4.60735 13.3332 6.04687L10.8877 12.808C10.3049 14.4194 10.0135 15.2251 9.64129 15.4024C9.32014 15.5554 8.942 15.527 8.64725 15.3279C8.30569 15.097 8.13766 14.2569 7.8016 12.5766L7.15523 9.34477L3.9234 8.6984C2.2431 8.36234 1.40295 8.19431 1.17214 7.85275C0.972967 7.558 0.944616 7.17986 1.09762 6.85871C1.27492 6.48654 2.08062 6.19512 3.69202 5.61227L10.4531 3.16677Z"/>
</svg>
