<svg width="34" height="16" viewBox="0 0 34 16" fill="none" xmlns="http://www.w3.org/2000/svg">
<path d="M31.0009 1H3C1.89543 1 1 1.89543 1 3V8L1.00004 13C1.00005 14.1046 1.89547 15 3.00004 15H31.0009C32.1055 15 33.0009 14.1046 33.0009 13V8V3C33.0009 1.89543 32.1055 1 31.0009 1Z" stroke="currentColor" stroke-width="2" stroke-linecap="round"/>
<path d="M1 5H2C3.65685 5 5 3.65685 5 2V1" stroke="currentColor" stroke-width="2" stroke-linecap="round"/>
<path d="M1 11H2C3.65685 11 5 12.3431 5 14V15" stroke="currentColor" stroke-width="2" stroke-linecap="round"/>
<path d="M33 11H32C30.3431 11 29 12.3431 29 14V15" stroke="currentColor" stroke-width="2" stroke-linecap="round"/>
<path d="M33 5H32C30.3431 5 29 3.65685 29 2V1" stroke="currentColor" stroke-width="2" stroke-linecap="round"/>
<circle cx="17" cy="8" r="4" fill="currentColor" stroke="currentColor" stroke-width="2"/>
<path d="M5 8H9" stroke="currentColor" stroke-width="2" stroke-linecap="round"/>
<path d="M29 8H25" stroke="currentColor" stroke-width="2" stroke-linecap="round"/>
</svg>
