<svg width="18" height="18" viewBox="0 0 18 18" fill="none" xmlns="http://www.w3.org/2000/svg">
<path fill-rule="evenodd" clip-rule="evenodd" d="M11.2589 4.47804L2.22179 13.5152C2.0155 13.7215 1.89961 14.0012 1.89961 14.293L1.89961 16.0001C1.89961 16.0553 1.94438 16.1001 1.99961 16.1001H3.70671C3.99845 16.1001 4.27824 15.9842 4.48453 15.7779L13.5216 6.74079L11.2589 4.47804ZM12.5317 3.20525L14.7944 5.46799L15.9258 4.33662C16.1601 4.10231 16.1601 3.72241 15.9258 3.48809L14.5116 2.07388C14.2773 1.83957 13.8974 1.83957 13.6631 2.07388L12.5317 3.20525ZM0.948997 12.2424L12.3903 0.801088C13.3275 -0.13617 14.8471 -0.13617 15.7844 0.801088L17.1986 2.2153C18.1358 3.15256 18.1358 4.67216 17.1986 5.60941L5.75732 17.0507C5.21347 17.5946 4.47584 17.9001 3.70671 17.9001L1.99961 17.9001C0.95027 17.9001 0.0996098 17.0494 0.0996096 16.0001L0.0996094 14.293C0.0996092 13.5239 0.405143 12.7862 0.948997 12.2424Z"/>
</svg>
