<svg width="22" height="25" viewBox="0 0 22 25" fill="none" xmlns="http://www.w3.org/2000/svg">
<path d="M1.69601 24.078H20.3351C20.6428 24.074 20.9367 23.9505 21.1543 23.7338C21.372 23.5171 21.496 23.2244 21.5 22.9179C21.4957 20.9046 20.9069 18.9354 19.8046 17.2476C18.7022 15.5598 17.1334 14.2254 15.287 13.4051C16.5593 12.5005 17.5102 11.2169 18.0025 9.73929C18.4949 8.2617 18.5032 6.66657 18.0263 5.18398C17.5493 3.70139 16.6119 2.40798 15.349 1.4903C14.0862 0.572627 12.5633 0.078125 11 0.078125C9.4367 0.078125 7.9138 0.572627 6.65097 1.4903C5.38814 2.40798 4.45066 3.70139 3.97375 5.18398C3.49683 6.66657 3.50514 8.2617 3.99747 9.73929C4.4898 11.2169 5.4407 12.5005 6.71302 13.4051C4.86663 14.2254 3.29777 15.5598 2.19544 17.2476C1.09311 18.9354 0.504319 20.9046 0.5 22.9179C0.502026 23.0723 0.534571 23.2248 0.595775 23.3666C0.656979 23.5085 0.745644 23.6369 0.856706 23.7447C0.967768 23.8524 1.09905 23.9373 1.24306 23.9945C1.38707 24.0517 1.54098 24.0801 1.69601 24.078ZM5.96746 7.44995C5.96746 6.45569 6.26352 5.48375 6.81821 4.65705C7.3729 3.83035 8.1613 3.18601 9.08372 2.80552C10.0061 2.42503 11.0211 2.32548 12.0004 2.51945C12.9796 2.71342 13.8791 3.19221 14.5851 3.89526C15.291 4.59831 15.7718 5.49405 15.9666 6.46921C16.1614 7.44437 16.0614 8.45515 15.6793 9.37373C15.2973 10.2923 14.6502 11.0774 13.8201 11.6298C12.9899 12.1822 12.0139 12.477 11.0155 12.477C9.67796 12.473 8.39634 11.942 7.45053 11.0001C6.50472 10.0583 5.97155 8.78196 5.96746 7.44995ZM11.0155 14.7972C12.9757 14.8022 14.8689 15.5075 16.3511 16.7848C17.8333 18.0622 18.8061 19.8268 19.0925 21.7578H2.93861C3.225 19.8268 4.19772 18.0622 5.67992 16.7848C7.16212 15.5075 9.05539 14.8022 11.0155 14.7972Z" fill="currentColor"/>
</svg>
