<svg width="28" height="28" viewBox="0 0 28 28" fill="none" xmlns="http://www.w3.org/2000/svg">
<path d="M12.1632 1.64998C12.7008 1.35349 13.3011 1.18866 13.9147 1.16899C14.5284 1.14932 15.138 1.27537 15.6935 1.53681L15.9152 1.64998L23.8193 6.31081L23.9313 6.38431L24.0387 6.47414L24.1635 6.56164C24.569 6.86568 24.9088 7.24852 25.1626 7.68718C25.4164 8.12584 25.579 8.61126 25.6405 9.11431L25.6615 9.34997L25.6673 9.58798V18.086C25.6673 19.3763 25.0023 20.5698 23.971 21.2278L23.7727 21.3445L15.8358 26.3635C14.7648 26.9515 13.4803 26.9876 12.3312 26.4428L12.1025 26.3261L4.29165 21.383C3.73571 21.079 3.26554 20.6396 2.92473 20.1054C2.58393 19.5713 2.38354 18.9597 2.34215 18.3275L2.33398 18.086V9.58681C2.33398 8.29647 2.99898 7.10414 4.05598 6.43097L12.1632 1.64998ZM14.0007 17.5003C13.7149 17.5003 13.4391 17.6053 13.2256 17.7951C13.012 17.985 12.8756 18.2467 12.8422 18.5305L12.834 18.667L12.8422 18.8151C12.8759 19.0987 13.0124 19.36 13.2259 19.5497C13.4395 19.7393 13.7151 19.844 14.0007 19.844C14.2862 19.844 14.5618 19.7393 14.7754 19.5497C14.9889 19.36 15.1254 19.0987 15.1592 18.8151L15.1673 18.6786L15.1592 18.5305C15.1257 18.2467 14.9893 17.985 14.7758 17.7951C14.5622 17.6053 14.2864 17.5003 14.0007 17.5003ZM15.5967 9.71514C14.8983 9.3581 14.0997 9.24771 13.3306 9.4019C12.5616 9.55609 11.8673 9.96581 11.3605 10.5645C11.1673 10.7908 11.0678 11.0824 11.0826 11.3797C11.0973 11.6769 11.225 11.9573 11.4397 12.1634C11.6543 12.3695 11.9396 12.4859 12.2372 12.4886C12.5348 12.4913 12.8221 12.3802 13.0405 12.178L13.24 11.968C13.4121 11.81 13.6285 11.7085 13.86 11.6772C14.0915 11.6459 14.3271 11.6863 14.535 11.793C14.7591 11.9064 14.9406 12.0891 15.0525 12.3139C15.1645 12.5388 15.2009 12.7937 15.1563 13.0409C15.1118 13.2881 14.9886 13.5143 14.8052 13.6859C14.6218 13.8575 14.3879 13.9653 14.1383 13.9933L13.8677 14.0073C13.5709 14.04 13.298 14.1851 13.105 14.4129C12.9121 14.6407 12.8138 14.9338 12.8304 15.2318C12.847 15.5299 12.9772 15.8102 13.1942 16.0152C13.4113 16.2202 13.6986 16.3341 13.9972 16.3336C14.7842 16.336 15.5491 16.073 16.1683 15.5871C16.7875 15.1013 17.2248 14.4209 17.4097 13.6558C17.5946 12.8908 17.5163 12.0858 17.1873 11.3707C16.8583 10.6557 16.2979 10.0725 15.5967 9.71514Z" fill="white"/>
</svg>
