<svg width="32" height="22" viewBox="0 0 32 22" fill="none" xmlns="http://www.w3.org/2000/svg">
<path fill-rule="evenodd" clip-rule="evenodd" d="M15.9991 7.175C14.8255 7.175 13.8741 6.22361 13.8741 5.05C13.8741 3.8764 14.8255 2.925 15.9991 2.925C17.1727 2.925 18.1241 3.8764 18.1241 5.05C18.1241 6.22361 17.1727 7.175 15.9991 7.175ZM11.3241 5.05C11.3241 2.46807 13.4172 0.375 15.9991 0.375C18.5811 0.375 20.6741 2.46807 20.6741 5.05C20.6741 7.63193 18.5811 9.725 15.9991 9.725C13.4172 9.725 11.3241 7.63193 11.3241 5.05ZM10.4741 17.375C10.4741 16.6679 10.8676 15.9673 11.8277 15.3829C12.8015 14.7901 14.2565 14.4 15.9991 14.4C17.7418 14.4 19.1968 14.7901 20.1706 15.3829C21.1307 15.9673 21.5241 16.6679 21.5241 17.375C21.5241 17.8728 21.3551 18.13 21.1527 18.2919C20.912 18.4845 20.4797 18.65 19.8241 18.65H12.1741C11.5186 18.65 11.0863 18.4845 10.8456 18.2919C10.6432 18.13 10.4741 17.8728 10.4741 17.375ZM15.9991 11.85C13.9168 11.85 11.9718 12.3099 10.5018 13.2046C9.01817 14.1077 7.92414 15.5321 7.92414 17.375C7.92414 18.5772 8.39257 19.595 9.25266 20.2831C10.0745 20.9405 11.1297 21.2 12.1741 21.2H19.8241C20.8686 21.2 21.9238 20.9405 22.7456 20.2831C23.6057 19.595 24.0741 18.5772 24.0741 17.375C24.0741 15.5321 22.9801 14.1077 21.4965 13.2046C20.0265 12.3099 18.0815 11.85 15.9991 11.85ZM22.8092 2.35037C22.9083 1.65321 23.5538 1.16838 24.2509 1.26747C26.3136 1.56063 27.8991 3.33157 27.8991 5.47502C27.8991 7.82224 25.9964 9.72502 23.6491 9.72502C22.945 9.72502 22.3741 9.15419 22.3741 8.45002C22.3741 7.74586 22.945 7.17502 23.6491 7.17502C24.588 7.17502 25.3491 6.41391 25.3491 5.47502C25.3491 4.61917 24.7155 3.90912 23.8921 3.79209C23.195 3.69301 22.7101 3.04752 22.8092 2.35037ZM25.7721 11C25.0679 11 24.4971 11.5708 24.4971 12.275C24.4971 12.9792 25.0679 13.55 25.7721 13.55C27.7416 13.55 28.7489 14.6934 28.7489 15.675C28.7489 16.0428 28.6237 16.3804 28.4336 16.6056C28.2636 16.8069 28.0206 16.95 27.6441 16.95C26.94 16.95 26.3691 17.5208 26.3691 18.225C26.3691 18.9292 26.94 19.5 27.6441 19.5C30.072 19.5 31.2989 17.4435 31.2989 15.675C31.2989 12.7653 28.5667 11 25.7721 11ZM7.49914 12.275C7.49914 11.5708 6.9283 11 6.22414 11C3.42952 11 0.697266 12.7653 0.697266 15.675C0.697266 17.4435 1.92423 19.5 4.35207 19.5C5.05623 19.5 5.62707 18.9292 5.62707 18.225C5.62707 17.5208 5.05623 16.95 4.35207 16.95C3.97564 16.95 3.7326 16.8069 3.56261 16.6056C3.37249 16.3804 3.24727 16.0428 3.24727 15.675C3.24727 14.6934 4.25461 13.55 6.22414 13.55C6.9283 13.55 7.49914 12.9792 7.49914 12.275ZM7.74108 1.26836C8.43808 1.16823 9.08429 1.6521 9.18442 2.34911C9.28454 3.04611 8.80068 3.69232 8.10367 3.79245C7.28151 3.91055 6.64914 4.62004 6.64914 5.47502C6.64914 6.4139 7.41026 7.17502 8.34914 7.17502C9.0533 7.17502 9.62414 7.74586 9.62414 8.45002C9.62414 9.15418 9.0533 9.72502 8.34914 9.72502C6.00193 9.72502 4.09914 7.82223 4.09914 5.47502C4.09914 3.33372 5.68151 1.56422 7.74108 1.26836Z" fill='currentColor'/>
</svg>
