<svg width="13" height="19" viewBox="0 0 13 19" fill="none" xmlns="http://www.w3.org/2000/svg">
<path d="M0.747396 0.757812C1.09545 0.757812 1.3776 1.03997 1.3776 1.38802V2.94253L2.82344 2.65337C4.21035 2.37599 5.64798 2.50798 6.96117 3.03326L7.13233 3.10171C8.44409 3.62643 9.88794 3.72442 11.2586 3.38175C11.8949 3.22267 12.5113 3.70394 12.5113 4.35982V10.5502C12.5113 11.0915 12.1428 11.5634 11.6176 11.6948L11.4374 11.7398C9.95045 12.1116 8.38426 12.0053 6.96117 11.4361C5.64798 10.9107 4.21035 10.7788 2.82344 11.0562L1.3776 11.3453V18.1936C1.3776 18.5416 1.09545 18.8238 0.747396 18.8238C0.399344 18.8238 0.117188 18.5416 0.117188 18.1936V1.38802C0.117188 1.03997 0.399344 0.757812 0.747396 0.757812Z" fill="#FF6347"/>
</svg>
