<svg width="24" height="25" viewBox="0 0 24 25" fill="none" xmlns="http://www.w3.org/2000/svg">
<path d="M23.6012 21.8065L17.7153 15.9135C20.6747 12.0617 20.3787 6.49788 16.8275 2.97524C14.8874 1.03286 12.3884 0.078125 9.85644 0.078125C7.32451 0.078125 4.82546 1.03286 2.88541 2.97524C-0.961805 6.8271 -0.961805 13.0822 2.88541 16.9341C4.82546 18.8765 7.32451 19.8312 9.85644 19.8312C11.9609 19.8312 14.0654 19.1728 15.8081 17.823L21.7269 23.6831C21.99 23.9464 22.3188 24.0781 22.6805 24.0781C23.0093 24.0781 23.371 23.9464 23.6341 23.6831C24.1273 23.1892 24.1273 22.3333 23.6012 21.8065ZM9.88932 17.1645C7.94927 17.1645 6.17363 16.4073 4.79258 15.0575C1.99759 12.2592 1.99759 7.68306 4.79258 4.85179C6.14075 3.50199 7.94927 2.74479 9.88932 2.74479C11.8294 2.74479 13.605 3.50199 14.9861 4.85179C16.3671 6.20158 17.0905 8.01228 17.0905 9.95467C17.0905 11.8971 16.3342 13.6748 14.9861 15.0575C13.6379 16.4403 11.7965 17.1645 9.88932 17.1645Z" fill="currentColor"/>
</svg>
