<svg width="72" height="78" viewBox="0 12 60 65" fill="none" xmlns="http://www.w3.org/2000/svg">
<g clip-path="url(#clip0_604_4575)">
<path d="M19.334 38.3335H27.334V46.3335H19.334V38.3335Z" fill="none" stroke="currentColor" stroke-width="2.4" stroke-linecap="round" stroke-linejoin="round"/>
<path d="M19.334 51.6665H27.334V59.6665H19.334V51.6665Z" fill="none" stroke="currentColor" stroke-width="2.4" stroke-linecap="round" stroke-linejoin="round"/>
<path d="M32.666 55.6665C32.666 56.7274 33.0874 57.7448 33.8376 58.4949C34.5877 59.2451 35.6051 59.6665 36.666 59.6665C37.7269 59.6665 38.7443 59.2451 39.4944 58.4949C40.2446 57.7448 40.666 56.7274 40.666 55.6665C40.666 54.6056 40.2446 53.5882 39.4944 52.8381C38.7443 52.0879 37.7269 51.6665 36.666 51.6665C35.6051 51.6665 34.5877 52.0879 33.8376 52.8381C33.0874 53.5882 32.666 54.6056 32.666 55.6665Z" fill="none" stroke="currentColor" stroke-width="2.4" stroke-linecap="round" stroke-linejoin="round"/>
<path fill-rule="evenodd" clip-rule="evenodd" d="M41.8668 42.6399V46.3333C41.8668 46.996 41.3295 47.5333 40.6668 47.5333H32.6668C32.0041 47.5333 31.4668 46.996 31.4668 46.3333V38.3333C31.4668 37.6706 32.0041 37.1333 32.6668 37.1333H35.0748C35.0257 37.4148 35 37.7044 35 38C35 38.5349 35.084 39.0501 35.2395 39.5333H33.8668V45.1333H39.4668V42.9719C39.642 42.9905 39.8199 43 40 43C40.6599 43 41.29 42.8721 41.8668 42.6399Z" fill="currentColor"/>
<circle cx="40" cy="38" r="3" fill="#35FF03"/>
</g>
<g filter="url(#filter0_d_604_4575)">
<path d="M12 12H48C48 14.2091 46.2091 16 44 16H16C13.7909 16 12 14.2091 12 12Z" fill=""/>
</g>
</svg>
