<svg width="97" height="108" viewBox="0 14.4 81 90" fill="none" xmlns="http://www.w3.org/2000/svg">
<g filter="url(#filter0_d_603_4483)">
<path d="M22 12H58V12C58 14.2091 56.2091 16 54 16H26C23.7909 16 22 14.2091 22 12V12Z" fill=""/>
</g>
<g filter="url(#filter1_f_603_4483)">
<!-- <circle cx="40.5" cy="49.5" r="8.5" fill=""/> -->
</g>
<g clip-path="url(#clip0_603_4483)">
<path d="M29.334 38.3335H37.334V46.3335H29.334V38.3335Z" stroke="currentColor" stroke-width="2.4" stroke-linecap="round" fill="none" stroke-linejoin="round"/>
<path d="M42.666 38.3335H50.666V46.3335H42.666V38.3335Z" stroke="currentColor" stroke-width="2.4" stroke-linecap="round" fill="none" stroke-linejoin="round"/>
<path d="M29.334 51.6665H37.334V59.6665H29.334V51.6665Z" stroke="currentColor" stroke-width="2.4" stroke-linecap="round" fill="none" stroke-linejoin="round"/>
<path d="M42.666 55.6665C42.666 56.7274 43.0874 57.7448 43.8376 58.4949C44.5877 59.2451 45.6051 59.6665 46.666 59.6665C47.7269 59.6665 48.7443 59.2451 49.4944 58.4949C50.2446 57.7448 50.666 56.7274 50.666 55.6665C50.666 54.6056 50.2446 53.5882 49.4944 52.8381C48.7443 52.0879 47.7269 51.6665 46.666 51.6665C45.6051 51.6665 44.5877 52.0879 43.8376 52.8381C43.0874 53.5882 42.666 54.6056 42.666 55.6665Z" fill="none" stroke="currentColor" stroke-width="2.4" stroke-linecap="round" stroke-linejoin="round"/>
</g>
</svg>
