<svg width="28" height="28" viewBox="0 0 28 28" fill="none" xmlns="http://www.w3.org/2000/svg">
<rect width="28" height="28" rx="14" fill="#6083FF"/>
<path d="M9.81117 8.19141L20.9987 14.0003L9.81117 19.8092C9.74731 19.8353 9.67759 19.8406 9.61088 19.8245C9.54417 19.8084 9.48346 19.7716 9.43646 19.7188C9.38809 19.6646 9.35479 19.5972 9.34026 19.5241C9.32572 19.451 9.33052 19.375 9.35411 19.3046L11.0478 14.0003L9.35411 8.69602C9.33052 8.62564 9.32572 8.54968 9.34026 8.47657C9.35479 8.40347 9.38809 8.33606 9.43646 8.28183C9.48346 8.229 9.54417 8.1922 9.61088 8.1761C9.67759 8.16 9.74731 8.16533 9.81117 8.19141Z" fill="white" stroke="white" stroke-linecap="round" stroke-linejoin="round"/>
</svg>
