<svg width="16" height="17" viewBox="0 0 16 17" fill="currentColor" xmlns="http://www.w3.org/2000/svg">
<g clip-path="url(#clip0_4_906)">
<path fill-rule="evenodd" clip-rule="evenodd" d="M16 8.5C16 4.08172 12.4183 0.5 8 0.5C3.58172 0.5 0 4.08172 0 8.5C0 12.9183 3.58172 16.5 8 16.5C12.4183 16.5 16 12.9183 16 8.5ZM7.7011 4.10565C7.78258 3.94057 7.98245 3.87279 8.14754 3.95426C8.21327 3.98671 8.26648 4.03992 8.29893 4.10565L9.56744 6.67595L12.4039 7.08811C12.5861 7.11459 12.7123 7.28373 12.6859 7.46591C12.6753 7.53846 12.6412 7.60551 12.5887 7.65668L10.5362 9.65737L11.0207 12.4824C11.0518 12.6638 10.93 12.8362 10.7485 12.8673C10.6763 12.8797 10.6019 12.8679 10.537 12.8338L8.00001 11.5L5.46298 12.8338C5.30003 12.9195 5.09849 12.8568 5.01283 12.6939C4.97871 12.629 4.96694 12.5546 4.97933 12.4824L5.46386 9.65737L3.41136 7.65668C3.27953 7.52818 3.27684 7.31714 3.40534 7.18531C3.45651 7.13282 3.52355 7.09866 3.5961 7.08811L6.43259 6.67595L7.7011 4.10565Z"/>
</g>
<defs>
<clipPath id="clip0_4_906">
<rect width="16" height="16" fill="currentColor" transform="translate(0 0.5)"/>
</clipPath>
</defs>
</svg>
