<svg width="32" height="31" viewBox="0 0 32 31" fill="none" xmlns="http://www.w3.org/2000/svg">
<path d="M15.1037 0.557434C15.4705 -0.185812 16.5304 -0.185811 16.8972 0.557435L21.0578 8.98785C21.2035 9.283 21.4851 9.48757 21.8108 9.5349L31.1143 10.8868C31.9345 11.006 32.262 12.0139 31.6685 12.5925L24.9364 19.1546C24.7007 19.3844 24.5932 19.7154 24.6488 20.0398L26.2381 29.3057C26.3782 30.1226 25.5207 30.7456 24.7871 30.3599L16.4658 25.9851C16.1745 25.8319 15.8264 25.8319 15.5351 25.9851L7.21378 30.3599C6.48015 30.7456 5.62272 30.1226 5.76283 29.3057L7.35207 20.0398C7.4077 19.7154 7.30016 19.3844 7.06447 19.1546L0.332378 12.5925C-0.261139 12.0139 0.0663717 11.006 0.886592 10.8868L10.1901 9.5349C10.5158 9.48757 10.7974 9.283 10.943 8.98785L15.1037 0.557434Z"/>
</svg>
