<svg width="28" height="28" viewBox="0 0 28 28" fill="none" xmlns="http://www.w3.org/2000/svg">
<path d="M23.3339 14.0003L21.0006 14.5837C19.9823 14.6727 18.9569 14.5377 17.9964 14.1881C17.0359 13.8385 16.1636 13.2828 15.4409 12.56C14.7181 11.8373 14.1624 10.965 13.8128 10.0045C13.4632 9.04399 13.3282 8.01858 13.4173 7.00033L14.0006 4.66699L23.3339 14.0003Z" stroke="#7F7F7F" stroke-width="2" stroke-linecap="round" stroke-linejoin="round"/>
<path d="M23.3327 14.0003C23.3327 15.8463 22.7853 17.6508 21.7597 19.1856C20.7342 20.7205 19.2765 21.9168 17.5711 22.6232C15.8656 23.3296 13.989 23.5145 12.1785 23.1543C10.368 22.7942 8.70498 21.9053 7.39969 20.6C6.0944 19.2947 5.20549 17.6317 4.84536 15.8212C4.48523 14.0107 4.67006 12.1341 5.37648 10.4286C6.0829 8.72317 7.27917 7.2655 8.81403 6.23994C10.3489 5.21438 12.1534 4.66699 13.9994 4.66699" stroke="#7F7F7F" stroke-width="2" stroke-linecap="round" stroke-linejoin="round"/>
</svg>
