<svg width="32" height="25" viewBox="0 0 32 25" fill="none" xmlns="http://www.w3.org/2000/svg">
<path fill-rule="evenodd" clip-rule="evenodd" d="M3.21858 8.26084C2.88132 7.35509 3.34217 6.34744 4.24791 6.01018L11.745 3.21858C12.6508 2.88132 13.6584 3.34217 13.9957 4.24791L14.8769 6.61458C12.8339 8.07964 11.8951 10.7769 12.7321 13.2515L14.5761 18.7041L9.65664 20.5359C8.7509 20.8731 7.74324 20.4123 7.40598 19.5065L3.21858 8.26084ZM15.3773 21.0734L10.529 22.8787C8.32935 23.6978 5.88219 22.5786 5.06313 20.3789L0.875725 9.13322C0.0566653 6.93355 1.17587 4.48639 3.37554 3.66733L10.8727 0.875725C13.0723 0.0566653 15.5195 1.17587 16.3386 3.37554L17.1801 5.63551C18.3102 5.43347 19.4437 5.59928 20.4377 6.06276C21.7354 6.66791 22.7974 7.78159 23.2993 9.26018L23.5324 9.94465L24.2001 9.68904L24.2014 9.68854C27.1131 8.55672 30.3474 10.0653 31.3513 13.0237C32.3498 15.9662 30.8312 19.223 27.9352 20.3495C26.2264 21.0142 24.5176 21.6791 22.8088 22.3439L22.7839 22.3536L22.7591 22.3633L22.7345 22.3729C21.097 23.01 19.4595 23.6471 17.822 24.2841C17.6671 24.3445 17.5016 24.3728 17.3354 24.3675C17.1691 24.3621 17.0055 24.3231 16.8546 24.2527C16.7037 24.1824 16.5686 24.0821 16.4576 23.9582C16.3465 23.8341 16.2618 23.6889 16.2085 23.5312L15.3773 21.0734ZM15.7942 9.07795C14.9804 9.96756 14.6561 11.2699 15.0618 12.4692L16.8847 17.8445L17.1538 17.7443C18.0595 17.407 18.5204 16.3994 18.1831 15.4936L15.7942 9.07795ZM17.6879 20.2131L18.132 21.5225C19.5425 20.974 20.9367 20.4324 22.3308 19.8909L22.3443 19.8857L22.35 19.8835L22.35 19.8835C23.9052 19.2794 25.4603 18.6753 27.0378 18.0617C28.7056 17.4129 29.5937 15.5083 29.0187 13.8137C28.4492 12.1354 26.7394 11.3381 25.0877 11.9804L23.2298 12.7063C23.0747 12.7669 22.9089 12.7954 22.7425 12.79C22.576 12.7846 22.4125 12.7456 22.2617 12.6752C22.1108 12.6049 21.9758 12.5047 21.8647 12.3807C21.7536 12.2567 21.6689 12.1114 21.6156 11.9537L20.9738 10.054C20.6861 9.20632 20.1081 8.58831 19.4115 8.26346C19.0009 8.07199 18.5407 7.97844 18.0608 8.00075L20.526 14.6212C21.345 16.8209 20.2258 19.2681 18.0261 20.0871L17.6879 20.2131Z" fill="currentColor"/>
</svg>
