<svg width="72" height="79.2" viewBox="0 12 60 66" fill="none" xmlns="http://www.w3.org/2000/svg">
<g filter="url(#filter0_d_604_4494)">
<path d="M12 12H48C48 14.2091 46.2091 16 44 16H16C13.7909 16 12 14.2091 12 12Z" fill=""/>
</g>
<path d="M43 47C44.6569 47 46 45.6569 46 44C46 42.3431 44.6569 41 43 41C41.3431 41 40 42.3431 40 44C40 45.6569 41.3431 47 43 47Z" fill="#35FF03"/>
<path fill-rule="evenodd" clip-rule="evenodd" d="M18.3 43.15C18.3 41.0237 20.0237 39.3 22.15 39.3H28.65C30.7261 39.3 32.4183 40.9432 32.4971 43H31.15C27.7535 43 25 45.7535 25 49.15V49.5H20.7179L20.3927 49.7845C19.5636 50.5101 18.893 51.356 18.3 52.1184V43.15ZM28.65 37C31.9964 37 34.7186 39.6728 34.7982 43H37.65C37.8003 43 37.9492 43.0054 38.0968 43.016C38.0333 43.3341 38 43.6632 38 44C38 44.4628 38.0629 44.9109 38.1806 45.3363C38.0071 45.3124 37.83 45.3 37.65 45.3H34.8V45.65C34.8 49.0466 32.0466 51.8 28.65 51.8H27.3029C27.3817 53.8568 29.0739 55.5 31.15 55.5H39.0821L39.4073 55.7845C40.2364 56.5101 40.907 57.356 41.5 58.1184V49.15C41.5 49.0201 41.4936 48.8917 41.481 48.7651C41.96 48.9177 42.4704 49 43 49C43.271 49 43.537 48.9784 43.7964 48.9369C43.7988 49.0077 43.8 49.0787 43.8 49.15V58.9462C43.8 59.8325 43.2864 60.5773 42.5335 60.8818C41.7571 61.1958 40.842 60.9903 40.2544 60.2575C40.0607 60.016 39.8794 59.7834 39.7045 59.5588L39.7028 59.5566C39.1981 58.9089 38.746 58.3287 38.2012 57.8H31.15C27.8036 57.8 25.0814 55.1273 25.0018 51.8H21.5988C21.054 52.3287 20.6019 52.9089 20.0972 53.5566L20.0955 53.5588C19.9206 53.7834 19.7393 54.016 19.5457 54.2575C18.958 54.9903 18.0429 55.1958 17.2665 54.8818C16.5137 54.5773 16 53.8325 16 52.9462V43.15C16 39.7535 18.7535 37 22.15 37H28.65ZM31.15 45.3H32.5V45.65C32.5 47.7763 30.7763 49.5 28.65 49.5H27.3V49.15C27.3 47.0237 29.0237 45.3 31.15 45.3Z" fill="currentColor"/>
</svg>
