<svg width="60" height="66" viewBox="0 12 60 66" fill="none" xmlns="http://www.w3.org/2000/svg">
<g filter="url(#filter0_d_607_4507)">
<path d="M12 12H48C48 14.2091 46.2091 16 44 16H16C13.7909 16 12 14.2091 12 12Z" fill=""/>
</g>
<path d="M43 47C44.6569 47 46 45.6569 46 44C46 42.3431 44.6569 41 43 41C41.3431 41 40 42.3431 40 44C40 45.6569 41.3431 47 43 47Z" fill="#35FF03"/>
<path fill-rule="evenodd" clip-rule="evenodd" d="M18.2479 42.0102C17.3422 42.3474 16.8813 43.3551 17.2186 44.2608L21.406 55.5065C21.7432 56.4123 22.7509 56.8731 23.6566 56.5359L28.5761 54.7041L26.7321 49.2515C25.8951 46.7769 26.8339 44.0796 28.8769 42.6146L27.9957 40.2479C27.6584 39.3422 26.6508 38.8813 25.745 39.2186L18.2479 42.0102ZM24.529 58.8787L29.3773 57.0734L30.2085 59.5312C30.2618 59.6889 30.3465 59.8341 30.4576 59.9582C30.5686 60.0821 30.7037 60.1824 30.8546 60.2527C31.0055 60.3231 31.1691 60.3621 31.3354 60.3675C31.5016 60.3728 31.6671 60.3445 31.822 60.2841C33.2252 59.7383 34.6283 59.1923 36.0315 58.6464L36.6717 58.3973L36.717 58.3797L36.7627 58.3619L36.8088 58.3439L41.9352 56.3495C44.8312 55.223 46.3498 51.9662 45.3513 49.0237C45.292 48.849 45.225 48.6794 45.1507 48.5151C44.4992 48.826 43.7699 49 43 49C42.8649 49 42.7311 48.9946 42.5987 48.9841C42.772 49.2289 42.9145 49.5065 43.0187 49.8137C43.5937 51.5083 42.7056 53.4129 41.0378 54.0617C39.4558 54.6771 37.8963 55.2829 36.3367 55.8887L36.3308 55.8909C34.9367 56.4324 33.5425 56.974 32.132 57.5225L31.6879 56.2131L32.0261 56.0871C34.2258 55.2681 35.345 52.8209 34.526 50.6212L32.0608 44.0008C32.5407 43.9784 33.0009 44.072 33.4115 44.2635C34.1081 44.5883 34.6861 45.2063 34.9738 46.054L35.6156 47.9537C35.6689 48.1114 35.7536 48.2567 35.8647 48.3807C35.9758 48.5047 36.1108 48.6049 36.2617 48.6752C36.4125 48.7456 36.576 48.7846 36.7425 48.79C36.9089 48.7954 37.0747 48.7669 37.2298 48.7063L39.0877 47.9804C39.308 47.8947 39.5294 47.8346 39.7489 47.7989C39.0877 47.2324 38.576 46.4964 38.2815 45.6581C38.2548 45.668 38.2281 45.6781 38.2014 45.6885L38.2001 45.689L37.5324 45.9447L37.2993 45.2602C36.7974 43.7816 35.7354 42.6679 34.4377 42.0628C33.4437 41.5993 32.3102 41.4335 31.1801 41.6355L30.3386 39.3755C29.5195 37.1759 27.0723 36.0567 24.8727 36.8757L17.3755 39.6673C15.1759 40.4864 14.0567 42.9335 14.8757 45.1332L19.0631 56.3789C19.8822 58.5786 22.3293 59.6978 24.529 58.8787ZM29.0618 48.4692C28.6561 47.2699 28.9804 45.9676 29.7942 45.078L32.1831 51.4936C32.5204 52.3994 32.0595 53.407 31.1538 53.7443L30.8847 53.8445L29.0618 48.4692Z" fill="currentColor"/>
</svg>
